<?xml version="1.0" encoding="utf-8" standalone="no"?>
<!DOCTYPE svg PUBLIC "-//W3C//DTD SVG 1.1//EN"
  "http://www.w3.org/Graphics/SVG/1.1/DTD/svg11.dtd">
<svg xmlns:xlink="http://www.w3.org/1999/xlink" width="466.665781pt" height="290.296pt" viewBox="0 0 466.665781 290.296" xmlns="http://www.w3.org/2000/svg" version="1.1">
 <metadata>
  <rdf:RDF xmlns:dc="http://purl.org/dc/elements/1.1/" xmlns:cc="http://creativecommons.org/ns#" xmlns:rdf="http://www.w3.org/1999/02/22-rdf-syntax-ns#">
   <cc:Work>
    <dc:type rdf:resource="http://purl.org/dc/dcmitype/StillImage"/>
    <dc:date>2026-10-10T20:52:26.424270</dc:date>
    <dc:format>image/svg+xml</dc:format>
    <dc:creator>
     <cc:Agent>
      <dc:title>Matplotlib v3.11.2, https://matplotlib.org/</dc:title>
     </cc:Agent>
    </dc:creator>
   </cc:Work>
  </rdf:RDF>
 </metadata>
 <defs>
  <style type="text/css">*{stroke-linejoin: round; stroke-linecap: butt}</style>
 </defs>
 <g id="figure_1">
  <g id="patch_1">
   <path d="M 0 290.296 
L 466.665781 290.296 
L 466.665781 0 
L 0 0 
z
" style="fill: #ffffff"/>
  </g>
  <g id="axes_1">
   <g id="patch_2">
    <path d="M 29.925767 94.17749 
L 126.222042 94.17749 
L 126.222042 43.8408 
L 29.925767 43.8408 
z
" clip-path="url(#pdfd4c9177c)" style="fill: #ffffff; stroke: #202020; stroke-width: 0.8; stroke-linejoin: miter"/>
   </g>
   <g id="patch_3">
    <path d="M 57.063808 75.355945 
C 58.80504 75.355945 60.47519 74.664146 61.706427 73.432909 
C 62.937664 72.201672 63.629463 70.531522 63.629463 68.79029 
C 63.629463 67.049058 62.937664 65.378907 61.706427 64.14767 
C 60.47519 62.916433 58.80504 62.224634 57.063808 62.224634 
C 55.322576 62.224634 53.652426 62.916433 52.421189 64.14767 
C 51.189952 65.378907 50.498153 67.049058 50.498153 68.79029 
C 50.498153 70.531522 51.189952 72.201672 52.421189 73.432909 
C 53.652426 74.664146 55.322576 75.355945 57.063808 75.355945 
z
" clip-path="url(#pdfd4c9177c)" style="fill: #d7d7d7; stroke: #202020; stroke-width: 0.7; stroke-linejoin: miter"/>
   </g>
   <g id="patch_4">
    <path d="M 99.084001 60.911503 
L 90.767505 76.231366 
L 107.400498 76.231366 
z
" clip-path="url(#pdfd4c9177c)" style="fill: #ffffff; stroke: #202020; stroke-width: 0.8; stroke-linejoin: miter"/>
   </g>
   <g id="patch_5">
    <path d="M 164.740553 94.17749 
L 261.036829 94.17749 
L 261.036829 43.8408 
L 164.740553 43.8408 
z
" clip-path="url(#pdfd4c9177c)" style="fill: #ffffff; stroke: #202020; stroke-width: 0.8; stroke-linejoin: miter"/>
   </g>
   <g id="patch_6">
    <path d="M 191.878594 75.355945 
C 193.619826 75.355945 195.289976 74.664146 196.521213 73.432909 
C 197.752451 72.201672 198.444249 70.531522 198.444249 68.79029 
C 198.444249 67.049058 197.752451 65.378907 196.521213 64.14767 
C 195.289976 62.916433 193.619826 62.224634 191.878594 62.224634 
C 190.137362 62.224634 188.467212 62.916433 187.235975 64.14767 
C 186.004738 65.378907 185.312939 67.049058 185.312939 68.79029 
C 185.312939 70.531522 186.004738 72.201672 187.235975 73.432909 
C 188.467212 74.664146 190.137362 75.355945 191.878594 75.355945 
z
" clip-path="url(#pdfd4c9177c)" style="fill: #d7d7d7; stroke: #202020; stroke-width: 0.7; stroke-linejoin: miter"/>
   </g>
   <g id="patch_7">
    <path d="M 233.898787 60.911503 
L 225.582291 76.231366 
L 242.215284 76.231366 
z
" clip-path="url(#pdfd4c9177c)" style="fill: #ffffff; stroke: #202020; stroke-width: 0.8; stroke-linejoin: miter"/>
   </g>
   <g id="patch_8">
    <path d="M 191.878594 81.48389 
C 195.244976 81.48389 198.473933 80.146412 200.854325 77.76602 
C 203.234716 75.385629 204.572194 72.156672 204.572194 68.79029 
C 204.572194 65.423908 203.234716 62.194951 200.854325 59.814559 
C 198.473933 57.434167 195.244976 56.09669 191.878594 56.09669 
C 188.512212 56.09669 185.283255 57.434167 182.902864 59.814559 
C 180.522472 62.194951 179.184994 65.423908 179.184994 68.79029 
C 179.184994 72.156672 180.522472 75.385629 182.902864 77.76602 
C 185.283255 80.146412 188.512212 81.48389 191.878594 81.48389 
L 191.878594 81.48389 
z
" clip-path="url(#pdfd4c9177c)" style="fill: none; stroke-dasharray: 2.4,1.6; stroke-dashoffset: 0; stroke: #202020; stroke-width: 0.8; stroke-linejoin: miter"/>
   </g>
   <g id="patch_9">
    <path d="M 128.848305 68.79029 
Q 145.481298 68.79029 161.219864 68.79029 
" clip-path="url(#pdfd4c9177c)" style="fill: none; stroke: #202020; stroke-width: 0.8; stroke-linecap: round"/>
    <path d="M 157.619864 66.99029 
L 161.219864 68.79029 
L 157.619864 70.59029 
" clip-path="url(#pdfd4c9177c)" style="fill: none; stroke: #202020; stroke-width: 0.8; stroke-linecap: round"/>
   </g>
   <g id="patch_10">
    <path d="M 302.619311 51.719586 
Q 311.373518 51.719586 319.233298 51.719586 
" clip-path="url(#pdfd4c9177c)" style="fill: none; stroke: #202020; stroke-width: 0.8; stroke-linecap: round"/>
    <path d="M 315.633298 49.919586 
L 319.233298 51.719586 
L 315.633298 53.519586 
" clip-path="url(#pdfd4c9177c)" style="fill: none; stroke: #202020; stroke-width: 0.8; stroke-linecap: round"/>
   </g>
   <g id="patch_11">
    <path d="M 302.619311 85.423283 
Q 311.373518 85.423283 319.233298 85.423283 
" clip-path="url(#pdfd4c9177c)" style="fill: none; stroke: #202020; stroke-width: 0.8; stroke-linecap: round"/>
    <path d="M 315.633298 83.623283 
L 319.233298 85.423283 
L 315.633298 87.223283 
" clip-path="url(#pdfd4c9177c)" style="fill: none; stroke: #202020; stroke-width: 0.8; stroke-linecap: round"/>
   </g>
   <g id="line2d_1">
    <path d="M 263.22538 68.79029 
L 302.619311 68.79029 
" clip-path="url(#pdfd4c9177c)" style="fill: none; stroke: #202020; stroke-width: 0.8; stroke-linecap: square"/>
   </g>
   <g id="line2d_2">
    <path d="M 302.619311 85.423283 
L 302.619311 51.719586 
" clip-path="url(#pdfd4c9177c)" style="fill: none; stroke: #202020; stroke-width: 0.8; stroke-linecap: square"/>
   </g>
   <g id="text_1">
    <!-- a -->
    <g style="fill: #202020" transform="translate(14.605905 17.083366) scale(0.12 -0.12)">
     <defs>
      <path id="SimSong-Regular-44" d="M 2970 384 
C 2970 422 2950 442 2925 442 
C 2912 442 2886 422 2842 384 
C 2797 346 2752 333 2707 333 
C 2502 333 2400 454 2400 704 
L 2400 2317 
C 2400 2893 2086 3187 1472 3187 
C 1216 3187 986 3130 787 3021 
C 531 2874 410 2675 410 2419 
C 410 2323 435 2240 486 2170 
C 538 2093 608 2061 698 2061 
C 890 2061 992 2157 992 2349 
C 992 2400 966 2464 922 2534 
C 870 2598 851 2656 851 2701 
C 851 2803 922 2886 1075 2950 
C 1190 2995 1312 3021 1440 3021 
C 1638 3021 1779 2970 1862 2880 
C 1939 2778 1984 2624 1984 2419 
L 1984 1952 
C 1549 1862 1178 1741 877 1581 
C 442 1350 230 1069 230 749 
C 230 250 531 0 1146 0 
C 1286 0 1440 58 1606 179 
C 1766 301 1901 454 2003 634 
C 2061 250 2234 58 2522 58 
C 2618 58 2714 96 2816 173 
C 2918 250 2970 320 2970 384 
z
M 1984 896 
C 1894 698 1779 531 1638 403 
C 1478 243 1325 166 1178 166 
C 1056 166 947 218 858 333 
C 762 435 717 576 717 755 
C 717 1050 851 1286 1120 1459 
C 1274 1555 1562 1664 1984 1792 
L 1984 896 
z
" transform="scale(0.015625)"/>
     </defs>
     <use xlink:href="#SimSong-Regular-44"/>
    </g>
   </g>
   <g id="text_2">
    <!-- 一次试次 -->
    <g style="fill: #202020" transform="translate(32.114318 16.723366) scale(0.11 -0.11)">
     <defs>
      <path id="SimSong-Regular-1d5e" d="M 397 2598 
L 518 2323 
C 646 2349 870 2368 1190 2368 
L 5914 2368 
C 5984 2368 6022 2394 6022 2451 
C 6022 2483 5946 2586 5798 2752 
C 5645 2912 5536 2995 5466 2995 
C 5440 2995 5370 2931 5261 2803 
C 5146 2662 5069 2579 5030 2541 
L 1190 2541 
C 845 2541 576 2560 397 2598 
z
" transform="scale(0.015625)"/>
      <path id="SimSong-Regular-3a7f" d="M 2925 5203 
C 2829 4576 2701 4032 2547 3571 
C 2406 3149 2195 2682 1926 2176 
L 1997 2106 
C 2342 2522 2611 2931 2803 3341 
C 2867 3482 2938 3642 3008 3814 
L 5114 3814 
C 4934 3475 4742 3174 4525 2918 
L 4602 2854 
C 4909 3059 5203 3270 5485 3501 
C 5536 3546 5613 3578 5702 3590 
C 5779 3597 5824 3629 5824 3686 
C 5824 3750 5754 3846 5626 3981 
C 5491 4109 5402 4179 5350 4179 
C 5318 4179 5274 4160 5222 4122 
C 5171 4077 5114 4032 5050 3994 
L 3072 3994 
C 3162 4250 3251 4538 3334 4858 
C 3341 4870 3379 4883 3450 4896 
C 3514 4909 3552 4934 3552 4973 
C 3552 5011 3482 5056 3354 5094 
L 2925 5203 
z
M 691 4678 
L 627 4608 
C 806 4371 941 4077 1030 3725 
C 1082 3546 1171 3456 1299 3456 
C 1357 3456 1408 3488 1459 3558 
C 1498 3635 1523 3706 1523 3782 
C 1523 3923 1453 4064 1325 4211 
C 1197 4358 986 4512 691 4678 
z
M 2061 3776 
L 960 1907 
C 915 1818 851 1760 768 1734 
C 691 1709 525 1702 275 1702 
L 250 1594 
C 589 1555 794 1517 864 1472 
C 915 1434 947 1376 947 1306 
C 947 1158 941 960 934 717 
C 896 346 877 102 877 -6 
C 890 -179 986 -269 1152 -269 
C 1280 -269 1357 -179 1376 -6 
C 1376 122 1350 378 1312 774 
C 1299 1075 1293 1312 1293 1478 
C 1293 1606 1357 1850 1498 2208 
C 1651 2573 1882 3085 2176 3738 
L 2061 3776 
z
M 3430 3302 
C 3443 3174 3450 3072 3450 2989 
C 3437 2490 3379 2035 3264 1626 
C 3130 1235 2950 902 2726 627 
C 2413 250 1971 -134 1402 -544 
L 1466 -621 
C 1939 -384 2349 -122 2682 160 
C 3002 429 3232 710 3379 998 
C 3552 1274 3680 1670 3770 2182 
C 3821 1946 3885 1728 3962 1523 
C 4090 1203 4256 890 4461 570 
C 4659 282 4909 13 5203 -230 
C 5440 -422 5600 -518 5677 -518 
C 5690 -518 5709 -474 5747 -397 
C 5798 -294 5888 -224 6029 -186 
L 6048 -122 
C 5606 96 5242 326 4960 582 
C 4678 838 4429 1152 4224 1523 
C 4064 1811 3930 2176 3827 2618 
L 3853 2950 
C 3853 2989 3885 3021 3955 3046 
C 4026 3072 4064 3110 4064 3162 
C 4064 3200 3974 3226 3795 3251 
L 3430 3302 
z
" transform="scale(0.015625)"/>
      <path id="SimSong-Regular-5b33" d="M 2253 3949 
L 2368 3674 
C 2496 3699 2720 3718 3040 3718 
L 4461 3718 
C 4486 2822 4538 2157 4627 1728 
C 4730 1165 4851 723 5005 403 
C 5120 122 5267 -102 5446 -294 
C 5600 -461 5728 -544 5824 -544 
C 5907 -544 5965 -525 6003 -493 
C 6048 -435 6074 -378 6074 -314 
C 6074 -288 6054 -250 6022 -186 
C 5984 -90 5971 -19 5971 26 
C 5971 96 6010 397 6099 922 
L 6003 954 
C 5946 736 5888 531 5830 352 
C 5766 147 5715 51 5677 51 
C 5574 51 5440 256 5261 672 
C 5082 1082 4954 1613 4883 2266 
C 4845 2669 4826 3155 4813 3718 
L 6067 3718 
C 6118 3718 6150 3744 6150 3802 
C 6150 3827 6093 3898 5984 4026 
C 5869 4141 5786 4205 5734 4205 
C 5715 4205 5670 4160 5594 4070 
L 5427 3891 
L 4806 3891 
C 4800 4186 4800 4506 4800 4851 
C 4800 4902 4826 4934 4890 4947 
C 4966 4973 5011 5005 5011 5050 
C 5011 5088 4954 5114 4845 5139 
C 4672 5165 4531 5190 4416 5203 
C 4435 5050 4448 4928 4448 4851 
C 4448 4512 4448 4192 4454 3891 
L 3040 3891 
C 2694 3891 2432 3910 2253 3949 
z
M 934 5030 
L 877 4966 
C 1114 4730 1293 4435 1414 4090 
C 1453 3930 1536 3853 1651 3853 
C 1702 3853 1747 3885 1786 3949 
C 1824 4013 1850 4077 1850 4147 
C 1850 4282 1773 4422 1632 4570 
C 1491 4717 1261 4870 934 5030 
z
M 5107 5030 
L 5050 4973 
C 5203 4832 5318 4653 5395 4435 
C 5434 4294 5504 4230 5600 4230 
C 5638 4230 5683 4256 5722 4307 
C 5754 4365 5773 4422 5773 4486 
C 5773 4563 5715 4653 5613 4742 
C 5510 4832 5344 4928 5107 5030 
z
M 250 3187 
L 410 2912 
C 499 2938 602 2950 710 2963 
L 1248 2963 
L 1248 467 
C 1235 378 1178 301 1075 237 
C 1005 186 973 147 973 122 
C 973 90 1050 13 1210 -109 
C 1267 -147 1318 -173 1370 -173 
C 1421 -173 1453 -147 1478 -96 
C 1517 0 1562 64 1613 109 
L 2528 1203 
L 2483 1280 
L 1600 461 
L 1600 2899 
C 1600 2963 1632 3021 1702 3066 
C 1766 3091 1798 3136 1798 3187 
C 1798 3219 1773 3251 1728 3290 
C 1568 3418 1459 3482 1408 3482 
C 1357 3482 1274 3366 1158 3136 
L 698 3136 
C 563 3136 416 3149 250 3187 
z
M 2323 2470 
L 2445 2195 
C 2573 2221 2790 2240 3098 2240 
L 3098 416 
C 2816 365 2534 320 2253 282 
L 2400 -90 
C 2445 -205 2490 -269 2534 -269 
C 2547 -269 2560 -243 2586 -192 
C 2586 -154 2592 -122 2598 -102 
C 2598 -64 2656 -32 2778 -13 
C 3443 179 4038 416 4576 698 
L 4544 755 
C 4186 653 3821 563 3450 486 
L 3450 2240 
L 4333 2240 
C 4378 2240 4403 2266 4403 2330 
C 4403 2349 4352 2413 4256 2515 
C 4166 2618 4096 2669 4051 2669 
C 4032 2669 3987 2630 3923 2560 
C 3859 2483 3814 2432 3789 2419 
L 3110 2419 
C 2765 2419 2502 2432 2323 2470 
z
" transform="scale(0.015625)"/>
     </defs>
     <use xlink:href="#SimSong-Regular-1d5e"/>
     <use xlink:href="#SimSong-Regular-3a7f" transform="translate(100 0)"/>
     <use xlink:href="#SimSong-Regular-5b33" transform="translate(200 0)"/>
     <use xlink:href="#SimSong-Regular-3a7f" transform="translate(300 0)"/>
    </g>
   </g>
   <g id="text_3">
    <!-- 呈现两个选项 -->
    <g style="fill: #202020" transform="translate(48.073905 35.622621) scale(0.1 -0.1)">
     <defs>
      <path id="SimSong-Regular-23a6" d="M 1421 5030 
C 1440 4851 1453 4678 1453 4499 
L 1453 3162 
C 1453 3034 1440 2899 1421 2771 
C 1421 2694 1459 2656 1549 2656 
C 1613 2656 1683 2669 1773 2694 
C 1824 2707 1850 2733 1850 2771 
L 1850 3066 
L 4576 3066 
L 4576 2893 
C 4576 2816 4608 2778 4672 2778 
C 4742 2778 4826 2790 4928 2816 
C 4979 2835 5011 2867 5011 2912 
C 4986 3104 4973 3251 4973 3366 
L 4973 4435 
C 4973 4480 5005 4525 5082 4563 
C 5158 4602 5197 4646 5197 4685 
C 5197 4723 5139 4794 5024 4883 
C 4909 4979 4826 5030 4787 5030 
C 4755 5030 4717 5011 4666 4973 
C 4621 4922 4570 4877 4512 4838 
L 1818 4838 
C 1690 4915 1555 4979 1421 5030 
z
M 1850 3238 
L 1850 4666 
L 4576 4666 
L 4576 3238 
L 1850 3238 
z
M 826 2426 
L 941 2150 
C 1075 2176 1299 2189 1613 2189 
L 3040 2189 
L 3040 1139 
L 1888 1139 
C 1542 1139 1280 1158 1101 1197 
L 1216 922 
C 1350 947 1574 966 1888 966 
L 3040 966 
L 3040 -211 
L 1414 -211 
C 1069 -211 806 -192 627 -154 
L 742 -429 
C 870 -397 1094 -384 1414 -384 
L 5856 -384 
C 5920 -384 5952 -352 5952 -294 
C 5952 -262 5882 -179 5754 -38 
C 5626 96 5530 166 5466 166 
C 5446 166 5389 109 5299 6 
L 5107 -211 
L 3411 -211 
L 3411 966 
L 5312 966 
C 5370 966 5402 992 5402 1056 
C 5402 1082 5338 1165 5216 1299 
C 5088 1427 4998 1498 4941 1498 
C 4922 1498 4870 1446 4781 1350 
C 4691 1235 4627 1165 4595 1139 
L 3411 1139 
L 3411 2189 
L 5613 2189 
C 5670 2189 5702 2214 5702 2278 
C 5702 2304 5638 2387 5517 2522 
C 5389 2650 5299 2720 5242 2720 
C 5216 2720 5165 2669 5082 2573 
C 4986 2464 4922 2394 4896 2368 
L 1613 2368 
C 1267 2368 1005 2387 826 2426 
z
" transform="scale(0.015625)"/>
      <path id="SimSong-Regular-430e" d="M 2848 4954 
C 2861 4723 2874 4531 2874 4378 
L 2874 2240 
C 2874 2054 2861 1843 2848 1606 
C 2848 1536 2886 1504 2963 1504 
C 3014 1504 3078 1510 3149 1536 
C 3200 1562 3226 1587 3226 1626 
L 3226 4614 
L 5011 4614 
L 5011 1734 
C 5011 1664 5043 1632 5107 1632 
C 5171 1632 5248 1638 5338 1658 
C 5389 1677 5421 1709 5421 1747 
C 5395 1926 5389 2067 5389 2176 
L 5389 4442 
C 5389 4486 5414 4525 5472 4563 
C 5536 4602 5574 4640 5574 4678 
C 5574 4717 5517 4774 5414 4864 
C 5299 4954 5222 5005 5190 5005 
C 5158 5005 5120 4979 5075 4934 
C 5024 4883 4979 4838 4928 4794 
L 3194 4794 
C 3085 4858 2970 4909 2848 4954 
z
M 378 4595 
L 493 4320 
C 621 4346 845 4365 1165 4365 
L 1350 4365 
L 1350 2842 
L 1286 2842 
C 941 2842 678 2861 499 2899 
L 621 2624 
C 749 2650 973 2669 1286 2669 
L 1350 2669 
L 1350 960 
C 1005 890 659 832 301 781 
L 461 378 
C 512 243 557 179 608 179 
C 621 179 640 205 666 269 
C 666 307 672 333 678 358 
C 678 403 736 435 864 461 
C 1574 678 2214 947 2778 1261 
L 2752 1306 
C 2406 1203 2061 1114 1702 1037 
L 1702 2669 
L 2573 2669 
C 2624 2669 2650 2694 2650 2752 
C 2650 2778 2598 2848 2496 2963 
C 2381 3072 2304 3130 2259 3130 
C 2240 3130 2195 3085 2118 3002 
C 2035 2918 1984 2867 1965 2842 
L 1702 2842 
L 1702 4365 
L 2643 4365 
C 2694 4365 2726 4390 2726 4454 
C 2726 4480 2669 4550 2554 4672 
C 2445 4787 2362 4851 2310 4851 
C 2285 4851 2240 4806 2170 4723 
C 2080 4621 2022 4563 1997 4544 
L 1165 4544 
C 819 4544 557 4557 378 4595 
z
M 3763 4128 
C 3789 3994 3802 3878 3802 3789 
C 3802 2323 3718 1427 3565 1094 
C 3437 762 3238 480 2970 250 
C 2682 6 2310 -224 1850 -448 
L 1914 -518 
C 2502 -294 2976 -38 3322 256 
C 3578 467 3782 736 3930 1069 
C 4070 1363 4147 2272 4147 3808 
C 4147 3840 4173 3866 4237 3891 
C 4301 3910 4333 3942 4333 3981 
C 4333 4019 4250 4045 4090 4064 
C 4000 4090 3891 4109 3763 4128 
z
M 4275 2176 
C 4288 2067 4301 1907 4301 1696 
L 4301 -77 
C 4301 -218 4339 -307 4422 -358 
C 4461 -384 4531 -410 4646 -422 
C 4762 -435 4922 -448 5126 -448 
C 5325 -448 5504 -435 5670 -416 
C 5824 -397 5933 -378 5990 -352 
C 6080 -326 6125 -275 6125 -211 
C 6125 -134 6067 -77 5965 -26 
C 5914 32 5882 141 5875 301 
C 5862 390 5856 563 5850 832 
L 5773 832 
C 5715 544 5664 320 5626 166 
C 5594 26 5549 -58 5498 -96 
C 5434 -128 5312 -147 5126 -147 
C 4973 -147 4851 -141 4774 -134 
C 4691 -122 4653 -83 4653 -26 
L 4653 1830 
C 4653 1882 4685 1914 4749 1933 
C 4838 1958 4890 2003 4890 2054 
C 4890 2086 4826 2112 4704 2131 
C 4531 2157 4390 2170 4275 2176 
z
" transform="scale(0.015625)"/>
      <path id="SimSong-Regular-1d82" d="M 352 4800 
L 467 4525 
C 595 4550 819 4570 1139 4570 
L 2138 4570 
L 2138 3418 
L 1254 3418 
C 1126 3494 998 3552 864 3603 
C 877 3360 890 3149 890 2982 
L 890 192 
C 890 0 877 -230 864 -486 
C 864 -557 902 -595 979 -595 
C 1037 -595 1107 -582 1190 -563 
C 1235 -538 1261 -506 1261 -474 
L 1261 3238 
L 2138 3238 
L 2138 3078 
C 2138 2586 2099 2176 2022 1843 
C 1978 1606 1888 1382 1754 1171 
C 1638 954 1504 781 1350 659 
L 1402 576 
C 1632 710 1830 890 2010 1114 
C 2182 1331 2310 1574 2387 1843 
C 2426 1997 2458 2176 2483 2381 
C 2624 2074 2739 1722 2816 1312 
C 2854 1171 2925 1101 3027 1101 
C 3066 1101 3104 1126 3155 1184 
C 3181 1229 3200 1286 3200 1363 
C 3200 1581 3136 1798 3021 2010 
C 2912 2202 2739 2400 2502 2605 
C 2509 2746 2515 2906 2515 3078 
L 2515 3238 
L 3686 3238 
L 3686 3002 
C 3686 2502 3642 2086 3558 1754 
C 3494 1517 3386 1293 3232 1082 
C 3091 858 2931 685 2752 563 
L 2803 480 
C 3059 608 3290 794 3494 1024 
C 3693 1242 3834 1485 3917 1754 
C 3968 1920 4000 2112 4026 2330 
C 4218 1907 4358 1472 4448 1030 
C 4474 877 4550 806 4672 806 
C 4710 806 4749 826 4787 864 
C 4826 909 4851 960 4851 1024 
C 4851 1293 4762 1581 4582 1875 
C 4442 2106 4269 2342 4051 2573 
C 4058 2701 4064 2848 4064 3002 
L 4064 3238 
L 5056 3238 
L 5056 0 
C 5056 -77 4992 -122 4877 -122 
C 4678 -122 4422 -77 4102 6 
L 4077 -90 
C 4493 -179 4710 -288 4730 -410 
C 4730 -512 4781 -570 4877 -570 
C 4960 -570 5069 -544 5197 -493 
C 5350 -429 5434 -333 5434 -205 
L 5434 3117 
C 5434 3155 5466 3194 5536 3226 
C 5594 3251 5626 3290 5626 3341 
C 5626 3379 5568 3450 5453 3552 
C 5338 3635 5261 3680 5229 3680 
C 5197 3680 5146 3642 5082 3565 
L 4954 3418 
L 4064 3418 
L 4064 4570 
L 5984 4570 
C 6042 4570 6074 4595 6074 4653 
C 6074 4678 6010 4768 5882 4909 
C 5754 5043 5658 5114 5594 5114 
C 5568 5114 5517 5056 5427 4954 
L 5229 4742 
L 1139 4742 
C 794 4742 531 4762 352 4800 
z
M 2515 4570 
L 3686 4570 
L 3686 3418 
L 2515 3418 
L 2515 4570 
z
" transform="scale(0.015625)"/>
      <path id="SimSong-Regular-1d88" d="M 3034 5254 
C 2682 4582 2278 4026 1824 3578 
C 1267 3027 749 2598 275 2291 
L 346 2202 
C 1120 2624 1741 3059 2208 3507 
C 2605 3840 2982 4275 3328 4826 
C 3533 4390 3795 3981 4102 3610 
C 4435 3251 4781 2957 5152 2714 
C 5510 2509 5734 2406 5824 2406 
C 5856 2406 5888 2451 5914 2547 
C 5971 2662 6061 2746 6182 2790 
L 6202 2880 
C 5709 3008 5216 3226 4723 3533 
C 4237 3840 3802 4307 3418 4934 
C 3430 4941 3462 4947 3501 4960 
C 3578 4966 3622 4992 3622 5030 
C 3622 5069 3552 5101 3411 5139 
C 3302 5165 3174 5203 3034 5254 
z
M 2893 3302 
C 2912 3110 2925 2886 2925 2637 
L 2925 211 
C 2925 6 2912 -218 2893 -461 
C 2899 -531 2944 -570 3027 -570 
C 3091 -570 3174 -557 3264 -531 
C 3315 -506 3347 -474 3347 -435 
C 3334 -192 3328 19 3328 211 
L 3328 2906 
C 3328 2957 3360 2995 3437 3021 
C 3539 3046 3597 3098 3597 3162 
C 3597 3194 3526 3219 3386 3238 
C 3181 3264 3021 3290 2893 3302 
z
" transform="scale(0.015625)"/>
      <path id="SimSong-Regular-5f67" d="M 2790 4928 
C 2733 4506 2669 4160 2592 3878 
C 2502 3533 2426 3264 2349 3072 
L 2419 2976 
C 2605 3226 2752 3482 2867 3750 
C 2893 3802 2925 3866 2957 3942 
L 3814 3942 
L 3814 2714 
L 2886 2714 
C 2541 2714 2278 2733 2099 2771 
L 2221 2496 
C 2349 2522 2573 2541 2886 2541 
L 3322 2541 
C 3309 2221 3277 1952 3226 1722 
C 3181 1504 3104 1306 3002 1126 
C 2886 947 2758 781 2605 640 
C 2445 499 2285 378 2125 288 
L 2182 205 
C 2451 307 2688 442 2906 602 
C 3072 717 3206 858 3315 1018 
C 3424 1171 3514 1363 3584 1581 
C 3648 1792 3693 2112 3718 2541 
L 4352 2541 
L 4352 851 
C 4352 691 4378 582 4429 531 
C 4461 493 4525 467 4627 448 
C 4730 435 4909 429 5165 429 
C 5344 429 5485 442 5600 467 
C 5715 474 5818 499 5894 544 
C 5946 582 5978 640 5978 723 
C 5978 774 5907 826 5773 864 
C 5715 890 5677 922 5664 966 
C 5651 986 5638 1178 5626 1542 
L 5549 1555 
C 5510 1120 5485 877 5459 838 
C 5434 806 5408 787 5376 781 
C 5318 762 5248 755 5165 755 
C 4947 755 4813 762 4768 774 
C 4717 800 4698 864 4698 954 
L 4698 2541 
L 5830 2541 
C 5894 2541 5926 2566 5926 2630 
C 5926 2656 5862 2746 5734 2886 
C 5600 3021 5504 3091 5446 3091 
C 5421 3091 5363 3034 5274 2931 
C 5178 2816 5114 2746 5082 2714 
L 4186 2714 
L 4186 3942 
L 5510 3942 
C 5568 3942 5600 3968 5600 4032 
C 5600 4051 5549 4109 5446 4211 
C 5280 4365 5178 4442 5139 4442 
C 5107 4442 5050 4390 4960 4301 
C 4870 4198 4813 4141 4787 4115 
L 4186 4115 
L 4186 4806 
C 4186 4858 4218 4890 4294 4915 
C 4390 4954 4442 4998 4442 5050 
C 4442 5075 4378 5101 4256 5120 
C 4064 5146 3910 5165 3789 5178 
C 3802 5075 3814 4966 3814 4864 
L 3814 4115 
L 3021 4115 
C 3066 4243 3110 4397 3155 4570 
C 3168 4589 3206 4608 3277 4621 
C 3354 4634 3398 4659 3398 4698 
C 3398 4736 3322 4774 3181 4813 
C 3066 4838 2938 4877 2790 4928 
z
M 864 5030 
L 800 4966 
C 1056 4736 1242 4454 1363 4115 
C 1408 3955 1485 3878 1600 3878 
C 1651 3878 1696 3910 1734 3974 
C 1773 4038 1798 4102 1798 4173 
C 1798 4301 1722 4435 1574 4576 
C 1434 4723 1197 4877 864 5030 
z
M 352 2720 
L 467 2445 
C 646 2470 922 2490 1286 2490 
L 1286 416 
C 1094 269 826 109 474 -64 
C 563 -243 653 -403 730 -531 
C 762 -589 794 -621 819 -621 
C 877 -621 909 -544 909 -397 
C 1133 -160 1325 83 1491 352 
C 1510 390 1523 416 1536 416 
C 1779 -13 2163 -262 2688 -339 
C 3104 -384 3552 -410 4038 -422 
L 5862 -422 
C 5914 -422 5946 -384 5958 -307 
C 5997 -141 6074 -51 6176 -26 
L 6157 45 
C 5478 0 4870 -19 4320 -19 
C 3360 -19 2739 0 2445 45 
C 2112 102 1856 262 1664 525 
L 1664 2445 
C 1664 2470 1696 2515 1766 2566 
C 1837 2618 1875 2656 1875 2694 
C 1875 2726 1818 2790 1709 2893 
C 1594 2982 1517 3027 1466 3027 
C 1427 3027 1370 2976 1293 2880 
C 1242 2810 1197 2739 1152 2669 
C 858 2669 589 2682 352 2720 
z
" transform="scale(0.015625)"/>
      <path id="SimSong-Regular-67d7" d="M 2547 4870 
L 2669 4595 
C 2797 4621 3021 4640 3334 4640 
L 4058 4640 
C 4013 4333 3968 4070 3930 3840 
L 3373 3840 
C 3251 3917 3117 3981 2976 4032 
C 2989 3802 3002 3610 3002 3456 
L 3002 1344 
C 3002 1158 2989 947 2976 704 
C 2976 634 3008 602 3085 602 
C 3136 602 3200 608 3277 634 
C 3322 659 3347 685 3347 723 
L 3347 3667 
L 5248 3667 
L 5248 704 
C 5248 634 5274 602 5338 602 
C 5402 602 5472 608 5555 634 
C 5606 653 5632 678 5632 717 
C 5606 883 5600 1018 5600 1120 
L 5600 3526 
C 5600 3565 5626 3603 5683 3642 
C 5741 3680 5773 3712 5773 3750 
C 5773 3776 5722 3834 5626 3923 
C 5517 4006 5446 4051 5414 4051 
C 5382 4051 5344 4026 5306 3987 
C 5254 3936 5210 3891 5165 3840 
L 4090 3840 
C 4269 4077 4422 4346 4557 4640 
L 6035 4640 
C 6093 4640 6125 4666 6125 4730 
C 6125 4755 6061 4838 5946 4973 
C 5818 5101 5722 5171 5670 5171 
C 5645 5171 5594 5120 5504 5024 
C 5414 4909 5350 4845 5318 4819 
L 3334 4819 
C 2989 4819 2726 4832 2547 4870 
z
M 352 4346 
L 467 4070 
C 595 4096 819 4115 1139 4115 
L 1286 4115 
L 1286 1184 
C 954 1082 608 998 250 928 
L 403 544 
C 454 416 499 352 544 352 
C 557 352 582 378 608 435 
C 608 474 614 506 621 531 
C 621 582 678 621 800 646 
C 1504 915 2138 1242 2701 1626 
L 2669 1677 
C 2342 1536 2010 1408 1664 1299 
L 1664 4115 
L 2598 4115 
C 2650 4115 2675 4141 2675 4205 
C 2675 4230 2624 4294 2522 4410 
C 2406 4518 2330 4576 2278 4576 
C 2266 4576 2221 4531 2144 4454 
L 1990 4294 
L 1139 4294 
C 794 4294 531 4307 352 4346 
z
M 4045 3328 
C 4070 3181 4090 3059 4090 2970 
C 4090 1779 4019 1050 3885 787 
C 3782 512 3616 282 3386 96 
C 3149 -96 2835 -288 2451 -467 
L 2522 -544 
C 3034 -358 3443 -147 3744 83 
C 3968 262 4141 480 4269 749 
C 4397 986 4461 1728 4461 2982 
C 4461 3021 4493 3046 4557 3072 
C 4621 3098 4659 3130 4659 3174 
C 4659 3213 4570 3238 4403 3264 
L 4045 3328 
z
M 4678 627 
L 4627 544 
C 4941 339 5222 45 5478 -352 
C 5542 -480 5613 -544 5677 -544 
C 5734 -544 5792 -506 5843 -442 
C 5882 -378 5901 -307 5901 -230 
C 5894 -115 5818 0 5670 115 
C 5402 320 5069 486 4678 627 
z
" transform="scale(0.015625)"/>
     </defs>
     <use xlink:href="#SimSong-Regular-23a6"/>
     <use xlink:href="#SimSong-Regular-430e" transform="translate(100 0)"/>
     <use xlink:href="#SimSong-Regular-1d82" transform="translate(200 0)"/>
     <use xlink:href="#SimSong-Regular-1d88" transform="translate(300 0)"/>
     <use xlink:href="#SimSong-Regular-5f67" transform="translate(400 0)"/>
     <use xlink:href="#SimSong-Regular-67d7" transform="translate(500 0)"/>
    </g>
   </g>
   <g id="text_4">
    <!-- 选择其中一个 -->
    <g style="fill: #202020" transform="translate(182.888691 35.622621) scale(0.1 -0.1)">
     <defs>
      <path id="SimSong-Regular-3247" d="M 326 3846 
L 442 3571 
C 576 3597 800 3616 1114 3616 
L 1338 3616 
L 1338 2381 
C 998 2240 653 2125 301 2029 
L 454 1638 
C 506 1510 550 1453 595 1453 
C 608 1453 634 1478 659 1536 
C 659 1574 666 1606 666 1632 
C 666 1696 730 1741 864 1779 
C 1024 1850 1184 1926 1338 2016 
L 1338 19 
C 1338 -32 1325 -70 1306 -90 
C 1267 -109 1210 -122 1146 -122 
C 1043 -122 877 -77 659 6 
L 627 -90 
C 986 -192 1171 -294 1190 -410 
C 1190 -531 1229 -595 1299 -595 
C 1350 -595 1434 -563 1549 -499 
C 1658 -448 1715 -326 1715 -134 
L 1715 2227 
C 2112 2458 2490 2720 2848 3014 
L 2803 3104 
C 2451 2893 2086 2707 1715 2541 
L 1715 3616 
L 2810 3616 
C 2867 3616 2899 3642 2899 3706 
C 2899 3731 2842 3808 2726 3936 
C 2605 4058 2515 4122 2464 4122 
C 2438 4122 2387 4070 2310 3981 
L 2138 3789 
L 1715 3789 
L 1715 4851 
C 1715 4915 1747 4954 1818 4979 
C 1920 5005 1971 5043 1971 5107 
C 1971 5133 1901 5152 1766 5178 
L 1312 5229 
C 1325 5069 1338 4883 1338 4678 
L 1338 3789 
L 1114 3789 
C 768 3789 506 3808 326 3846 
z
M 2477 4845 
L 2592 4570 
C 2694 4589 2835 4602 3014 4608 
C 3187 4198 3392 3866 3622 3610 
C 3731 3482 3840 3373 3955 3277 
C 3840 3187 3725 3098 3597 3014 
C 3258 2790 2816 2566 2272 2342 
L 2336 2253 
C 3078 2464 3699 2733 4198 3059 
L 4205 3066 
C 4230 3040 4262 3014 4301 2995 
C 4646 2771 4960 2605 5242 2496 
C 5517 2381 5702 2330 5798 2330 
C 5830 2330 5862 2362 5894 2438 
C 5926 2541 6016 2605 6157 2630 
L 6176 2701 
C 5626 2816 5107 2995 4627 3238 
C 4589 3251 4557 3270 4518 3296 
C 4883 3590 5190 3962 5434 4422 
C 5446 4461 5491 4499 5568 4531 
C 5638 4557 5677 4589 5677 4627 
C 5677 4666 5600 4749 5446 4877 
C 5306 4979 5222 5030 5197 5030 
C 5158 5030 5107 4998 5056 4947 
C 4998 4890 4947 4838 4896 4794 
L 3264 4794 
C 3034 4794 2771 4806 2477 4845 
z
M 3130 4614 
L 4986 4614 
C 4877 4301 4698 4013 4448 3750 
C 4371 3661 4288 3571 4198 3488 
C 4019 3603 3859 3731 3718 3872 
C 3488 4109 3290 4358 3130 4614 
z
M 3885 2682 
C 3898 2502 3910 2291 3910 2048 
L 3910 1990 
L 3411 1990 
C 3066 1990 2803 2010 2624 2048 
L 2746 1773 
C 2874 1798 3098 1818 3411 1818 
L 3910 1818 
L 3910 1018 
L 2989 1018 
C 2643 1018 2381 1037 2202 1075 
L 2317 800 
C 2451 826 2675 838 2989 838 
L 3910 838 
L 3910 83 
C 3910 -109 3898 -314 3885 -538 
C 3891 -608 3930 -646 4006 -646 
C 4070 -646 4147 -634 4237 -614 
C 4288 -589 4320 -557 4320 -518 
C 4294 -294 4288 -96 4288 83 
L 4288 838 
L 5914 838 
C 5971 838 6003 864 6003 928 
C 6003 954 5939 1030 5824 1158 
C 5709 1286 5619 1350 5562 1350 
C 5536 1350 5491 1299 5414 1203 
C 5325 1107 5261 1043 5235 1018 
L 4288 1018 
L 4288 1818 
L 5619 1818 
C 5670 1818 5702 1843 5702 1907 
C 5702 1926 5645 1997 5530 2125 
C 5421 2240 5338 2304 5286 2304 
C 5261 2304 5216 2259 5146 2170 
C 5056 2074 4998 2016 4973 1990 
L 4288 1990 
L 4288 2304 
C 4288 2355 4320 2394 4397 2419 
C 4493 2445 4544 2483 4544 2547 
C 4544 2573 4480 2598 4352 2624 
C 4160 2650 4006 2669 3885 2682 
z
" transform="scale(0.015625)"/>
      <path id="SimSong-Regular-20d4" d="M 448 4301 
L 570 4026 
C 698 4051 922 4064 1235 4064 
L 1536 4064 
L 1536 1165 
L 1088 1165 
C 742 1165 480 1184 301 1222 
L 416 947 
C 550 973 774 992 1088 992 
L 6022 992 
C 6086 992 6125 1018 6125 1082 
C 6125 1107 6054 1190 5926 1344 
C 5792 1485 5690 1562 5626 1562 
C 5600 1562 5536 1504 5446 1389 
C 5344 1274 5274 1197 5242 1165 
L 4640 1165 
L 4640 4064 
L 5882 4064 
C 5946 4064 5978 4090 5978 4154 
C 5978 4179 5907 4269 5779 4410 
C 5651 4544 5555 4614 5491 4614 
C 5472 4614 5414 4557 5325 4454 
C 5229 4346 5165 4275 5133 4243 
L 4640 4243 
L 4640 4851 
C 4640 4902 4672 4941 4742 4966 
C 4845 5005 4896 5050 4896 5101 
C 4896 5126 4832 5146 4704 5171 
C 4512 5197 4358 5216 4237 5229 
C 4250 5126 4262 5018 4262 4915 
L 4262 4243 
L 1914 4243 
L 1914 4851 
C 1914 4902 1946 4941 2016 4966 
C 2118 5005 2170 5050 2170 5101 
C 2170 5126 2106 5146 1984 5171 
C 1792 5197 1638 5216 1510 5229 
C 1523 5126 1536 5018 1536 4915 
L 1536 4243 
L 1235 4243 
C 890 4243 627 4262 448 4301 
z
M 1914 3219 
L 1914 4064 
L 4262 4064 
L 4262 3219 
L 1914 3219 
z
M 1914 2170 
L 1914 3040 
L 4262 3040 
L 4262 2170 
L 1914 2170 
z
M 1914 1165 
L 1914 1990 
L 4262 1990 
L 4262 1165 
L 1914 1165 
z
M 2074 781 
C 1722 301 1158 -128 378 -518 
L 435 -595 
C 896 -442 1267 -288 1542 -141 
C 1856 26 2144 218 2413 422 
C 2426 442 2464 454 2534 454 
C 2592 461 2624 480 2624 512 
C 2624 538 2554 582 2426 634 
L 2074 781 
z
M 3853 730 
L 3802 653 
C 4275 422 4704 90 5088 -352 
C 5178 -493 5274 -570 5376 -570 
C 5427 -570 5478 -538 5523 -480 
C 5555 -429 5574 -365 5574 -294 
C 5562 -154 5453 -13 5248 115 
C 4864 358 4403 563 3853 730 
z
" transform="scale(0.015625)"/>
      <path id="SimSong-Regular-1d8b" d="M 736 4077 
C 749 3834 762 3629 762 3462 
L 762 1914 
C 762 1722 749 1498 736 1242 
C 736 1165 774 1126 858 1126 
C 909 1126 979 1133 1062 1158 
C 1114 1184 1139 1216 1139 1254 
L 1139 1741 
L 2938 1741 
L 2938 211 
C 2938 -6 2925 -243 2906 -499 
C 2912 -576 2957 -621 3046 -621 
C 3117 -621 3200 -608 3302 -582 
C 3360 -557 3392 -518 3392 -480 
C 3366 -224 3360 6 3360 211 
L 3360 1741 
L 5114 1741 
L 5114 1235 
C 5114 1158 5139 1126 5203 1126 
C 5267 1126 5350 1133 5440 1158 
C 5491 1178 5517 1210 5517 1248 
C 5491 1427 5485 1568 5485 1677 
L 5485 3539 
C 5485 3584 5517 3622 5587 3661 
C 5664 3699 5702 3738 5702 3776 
C 5702 3814 5645 3878 5536 3968 
C 5421 4058 5350 4102 5312 4102 
C 5280 4102 5242 4077 5197 4032 
L 5050 3866 
L 3360 3866 
L 3360 4832 
C 3360 4890 3398 4928 3482 4954 
C 3590 4986 3648 5037 3648 5107 
C 3648 5133 3571 5165 3430 5190 
C 3213 5216 3040 5242 2906 5254 
C 2925 5050 2938 4813 2938 4544 
L 2938 3866 
L 1165 3866 
C 1037 3949 890 4019 736 4077 
z
M 1139 1914 
L 1139 3693 
L 2938 3693 
L 2938 1914 
L 1139 1914 
z
M 3360 3693 
L 5114 3693 
L 5114 1914 
L 3360 1914 
L 3360 3693 
z
" transform="scale(0.015625)"/>
     </defs>
     <use xlink:href="#SimSong-Regular-5f67"/>
     <use xlink:href="#SimSong-Regular-3247" transform="translate(100 0)"/>
     <use xlink:href="#SimSong-Regular-20d4" transform="translate(200 0)"/>
     <use xlink:href="#SimSong-Regular-1d8b" transform="translate(300 0)"/>
     <use xlink:href="#SimSong-Regular-1d5e" transform="translate(400 0)"/>
     <use xlink:href="#SimSong-Regular-1d88" transform="translate(500 0)"/>
    </g>
   </g>
   <g id="text_5">
    <!-- 所选项的反馈 -->
    <g style="fill: #202020" transform="translate(344.841518 35.622621) scale(0.1 -0.1)">
     <defs>
      <path id="SimSong-Regular-319e" d="M 2803 4672 
L 3034 4614 
C 3085 4614 3117 4640 3123 4678 
C 3123 4717 3059 4787 2931 4883 
C 2848 4947 2739 5037 2598 5152 
C 2374 4992 2157 4864 1952 4774 
C 1786 4685 1549 4589 1235 4486 
C 1133 4550 1005 4614 838 4678 
C 864 4282 877 3629 877 2726 
C 877 1805 819 1107 704 646 
C 621 262 454 -134 198 -563 
L 269 -621 
C 499 -358 685 -96 826 160 
C 979 493 1088 851 1152 1235 
C 1171 1395 1184 1574 1197 1766 
L 2451 1766 
L 2451 1427 
C 2451 1363 2477 1331 2534 1331 
C 2598 1331 2669 1338 2758 1363 
C 2803 1376 2829 1402 2829 1440 
C 2810 1606 2803 1747 2803 1850 
L 2803 3232 
C 2803 3270 2822 3302 2867 3341 
C 2918 3379 2950 3411 2950 3450 
C 2950 3482 2899 3539 2803 3622 
C 2688 3712 2618 3757 2586 3757 
C 2554 3757 2522 3731 2483 3680 
C 2432 3622 2387 3565 2336 3514 
L 1222 3514 
L 1222 4320 
C 1747 4390 2272 4506 2803 4672 
z
M 5734 4723 
L 5939 4678 
C 5990 4678 6016 4698 6022 4730 
C 6022 4762 5965 4826 5856 4915 
C 5779 4973 5683 5050 5555 5152 
C 5286 5030 5018 4934 4755 4864 
C 4550 4800 4262 4730 3878 4659 
C 3770 4736 3610 4819 3392 4902 
C 3418 4454 3437 3712 3437 2682 
C 3437 1773 3347 1094 3174 640 
C 3034 269 2771 -122 2374 -538 
L 2451 -595 
C 2784 -339 3046 -83 3245 166 
C 3462 486 3616 838 3706 1222 
C 3776 1638 3814 2125 3814 2682 
L 3814 2867 
L 4826 2867 
L 4826 51 
C 4826 -173 4813 -346 4800 -474 
C 4800 -538 4838 -570 4915 -570 
C 4966 -570 5037 -557 5120 -531 
C 5171 -506 5197 -480 5197 -448 
C 5184 -256 5178 -90 5178 51 
L 5178 2867 
L 6086 2867 
C 6144 2867 6176 2893 6176 2957 
C 6176 2976 6118 3034 6016 3136 
C 5850 3290 5747 3366 5715 3366 
C 5683 3366 5626 3315 5536 3226 
C 5446 3123 5389 3066 5363 3040 
L 3814 3040 
L 3814 4518 
C 4454 4557 5094 4627 5734 4723 
z
M 1222 3341 
L 2451 3341 
L 2451 1939 
L 1203 1939 
C 1216 2182 1222 2445 1222 2726 
L 1222 3341 
z
" transform="scale(0.015625)"/>
      <path id="SimSong-Regular-45e2" d="M 1523 5254 
C 1485 4826 1434 4422 1363 4038 
L 1056 4038 
C 922 4115 787 4179 653 4230 
C 666 4077 672 3923 672 3770 
L 672 0 
C 672 -115 666 -230 653 -346 
C 653 -410 685 -448 762 -448 
C 813 -448 877 -435 954 -416 
C 998 -397 1024 -371 1024 -346 
L 1024 243 
L 2400 243 
L 2400 -243 
C 2400 -307 2426 -346 2490 -346 
C 2547 -346 2618 -333 2707 -314 
C 2758 -288 2784 -262 2784 -230 
C 2758 -58 2752 70 2752 173 
L 2752 3731 
C 2752 3770 2778 3802 2829 3840 
C 2893 3878 2925 3910 2925 3949 
C 2925 3981 2874 4038 2778 4122 
C 2662 4211 2592 4256 2560 4256 
C 2534 4256 2496 4230 2458 4186 
L 2310 4038 
L 1530 4038 
C 1670 4288 1805 4563 1920 4864 
C 1933 4896 1978 4922 2042 4934 
C 2112 4947 2150 4973 2150 5005 
C 2150 5050 2048 5101 1850 5152 
C 1766 5178 1658 5216 1523 5254 
z
M 3565 5229 
C 3469 4608 3366 4096 3251 3686 
C 3110 3174 2976 2778 2848 2496 
L 2925 2406 
C 3187 2784 3398 3174 3552 3584 
C 3590 3661 3629 3757 3667 3866 
L 5421 3866 
C 5414 3098 5376 2278 5306 1421 
C 5248 672 5190 218 5133 64 
C 5082 -58 4986 -122 4845 -122 
C 4717 -122 4390 -83 3878 -19 
L 3853 -109 
C 4422 -237 4723 -339 4755 -416 
C 4781 -531 4838 -595 4928 -595 
C 4992 -595 5082 -563 5210 -499 
C 5325 -435 5421 -301 5491 -96 
C 5581 192 5645 691 5696 1408 
C 5760 2285 5805 3046 5824 3686 
C 5824 3725 5850 3763 5914 3808 
C 5971 3853 6003 3891 6003 3923 
C 6003 3968 5952 4032 5850 4122 
C 5747 4224 5670 4282 5626 4282 
C 5581 4282 5530 4250 5478 4198 
C 5427 4134 5376 4083 5325 4038 
L 3725 4038 
C 3802 4269 3872 4544 3949 4858 
C 3962 4877 4000 4896 4070 4909 
C 4154 4922 4198 4947 4198 4986 
C 4198 5024 4122 5062 3974 5107 
C 3859 5133 3718 5178 3565 5229 
z
M 1024 2291 
L 1024 3866 
L 2400 3866 
L 2400 2291 
L 1024 2291 
z
M 3437 2957 
L 3373 2912 
C 3680 2528 3878 2131 3974 1715 
C 4006 1523 4090 1427 4224 1427 
C 4275 1427 4326 1453 4365 1504 
C 4403 1555 4422 1619 4422 1696 
C 4422 1850 4352 2029 4211 2234 
C 4064 2438 3808 2682 3437 2957 
z
M 1024 416 
L 1024 2118 
L 2400 2118 
L 2400 416 
L 1024 416 
z
" transform="scale(0.015625)"/>
      <path id="SimSong-Regular-232b" d="M 5344 4634 
L 5536 4589 
C 5594 4589 5626 4608 5626 4653 
C 5626 4691 5555 4762 5427 4851 
C 5357 4890 5254 4960 5126 5056 
C 4672 4909 4173 4794 3629 4710 
C 3117 4621 2438 4531 1587 4442 
C 1466 4518 1306 4602 1107 4678 
C 1133 4333 1152 3763 1152 2976 
C 1152 1990 1075 1248 922 755 
C 800 352 570 -70 224 -531 
L 307 -595 
C 608 -314 851 -38 1030 243 
C 1229 595 1370 973 1459 1382 
C 1517 1843 1549 2374 1549 2976 
L 1549 3040 
L 2202 3040 
C 2374 2330 2598 1786 2867 1408 
C 3021 1190 3181 986 3360 806 
C 3245 710 3123 614 2995 525 
C 2509 173 1882 -173 1101 -531 
L 1165 -621 
C 2125 -301 2938 96 3610 570 
C 3661 525 3712 480 3776 435 
C 4198 109 4602 -134 4986 -307 
C 5325 -480 5555 -570 5677 -570 
C 5709 -570 5741 -525 5773 -448 
C 5811 -333 5901 -269 6048 -243 
L 6074 -173 
C 5344 38 4691 333 4109 704 
C 4045 742 3987 781 3936 819 
C 4550 1325 5050 1990 5434 2822 
C 5446 2861 5491 2899 5568 2931 
C 5638 2957 5677 2989 5677 3027 
C 5677 3066 5600 3149 5446 3277 
C 5306 3379 5222 3430 5197 3430 
C 5158 3430 5107 3405 5056 3354 
L 4896 3219 
L 1549 3219 
L 1549 4301 
C 2886 4314 4154 4422 5344 4634 
z
M 2310 3040 
L 4986 3040 
C 4826 2547 4570 2093 4218 1670 
C 4038 1453 3846 1242 3635 1050 
C 3360 1267 3130 1517 2950 1798 
C 2682 2182 2470 2592 2310 3040 
z
" transform="scale(0.015625)"/>
      <path id="SimSong-Regular-68e6" d="M 2874 4704 
C 2886 4474 2899 4282 2899 4128 
L 2899 4064 
C 2899 3878 2886 3667 2874 3430 
C 2874 3360 2912 3328 2989 3328 
C 3040 3328 3098 3334 3174 3360 
C 3226 3386 3251 3411 3251 3450 
L 3251 3539 
L 3987 3539 
L 3987 2944 
L 3085 2944 
C 2739 2944 2477 2957 2298 2995 
L 2419 2720 
C 2547 2746 2771 2765 3085 2765 
L 5965 2765 
C 6016 2765 6048 2790 6048 2854 
C 6048 2880 5990 2957 5875 3085 
C 5760 3206 5670 3270 5613 3270 
C 5587 3270 5542 3219 5466 3130 
C 5376 3027 5312 2970 5286 2944 
L 4365 2944 
L 4365 3539 
L 5190 3539 
L 5190 3437 
C 5190 3360 5216 3328 5280 3328 
C 5344 3328 5421 3334 5510 3360 
C 5562 3379 5594 3411 5594 3450 
C 5568 3629 5562 3770 5562 3878 
L 5562 4166 
C 5562 4211 5587 4250 5651 4288 
C 5715 4326 5747 4365 5747 4403 
C 5747 4442 5690 4499 5587 4589 
C 5472 4678 5402 4730 5363 4730 
C 5331 4730 5293 4704 5248 4659 
C 5203 4608 5152 4563 5101 4518 
L 4365 4518 
L 4365 4832 
C 4365 4883 4397 4915 4474 4941 
C 4582 4973 4640 5018 4640 5075 
C 4640 5101 4570 5126 4435 5146 
C 4243 5171 4083 5190 3962 5203 
C 3974 5043 3987 4864 3987 4666 
L 3987 4518 
L 3264 4518 
C 3142 4595 3014 4653 2874 4704 
z
M 1184 5082 
C 1062 4422 928 3878 787 3450 
C 602 2912 429 2490 275 2189 
L 339 2106 
C 640 2515 883 2938 1062 3379 
C 1120 3501 1178 3635 1235 3789 
L 2054 3789 
C 2003 3507 1933 3264 1843 3046 
L 1933 2976 
C 2099 3142 2259 3360 2419 3642 
C 2432 3674 2477 3699 2541 3712 
C 2630 3744 2675 3782 2675 3827 
C 2675 3866 2611 3949 2483 4064 
C 2374 4154 2304 4205 2272 4205 
C 2246 4205 2202 4166 2144 4096 
C 2112 4070 2074 4026 2022 3968 
L 1299 3968 
C 1376 4198 1446 4461 1523 4755 
C 1536 4768 1568 4787 1632 4806 
C 1709 4813 1747 4832 1747 4864 
C 1747 4896 1677 4934 1549 4973 
C 1446 4998 1325 5037 1184 5082 
z
M 3251 3718 
L 3251 4339 
L 3987 4339 
L 3987 3718 
L 3251 3718 
z
M 4365 3718 
L 4365 4339 
L 5190 4339 
L 5190 3718 
L 4365 3718 
z
M 1146 3002 
C 1158 2899 1165 2758 1165 2579 
L 1165 288 
C 1165 198 1139 128 1088 77 
C 1024 38 998 6 998 -19 
C 998 -58 1062 -154 1197 -301 
C 1242 -365 1293 -397 1357 -397 
C 1389 -397 1421 -352 1459 -269 
C 1517 -154 1587 -77 1670 -26 
L 2573 602 
L 2515 704 
L 1536 224 
L 1536 2592 
C 1536 2669 1574 2720 1651 2752 
C 1734 2778 1779 2816 1779 2867 
C 1779 2906 1728 2931 1626 2944 
L 1146 3002 
z
M 2835 2554 
C 2848 2310 2861 2099 2861 1933 
L 2861 1216 
C 2861 1018 2848 794 2835 544 
C 2835 467 2874 429 2957 429 
C 3014 429 3085 435 3162 461 
C 3213 486 3238 518 3238 557 
L 3238 2170 
L 5088 2170 
L 5088 608 
C 5088 538 5120 506 5184 506 
C 5248 506 5325 512 5414 538 
C 5466 557 5491 582 5491 621 
C 5472 800 5466 941 5466 1056 
L 5466 1965 
C 5466 2010 5491 2048 5549 2086 
C 5613 2125 5651 2163 5651 2202 
C 5651 2240 5594 2304 5485 2394 
C 5370 2483 5299 2528 5261 2528 
C 5229 2528 5190 2509 5152 2470 
C 5101 2426 5050 2381 4998 2342 
L 3264 2342 
C 3136 2426 2989 2496 2835 2554 
z
M 3974 1882 
C 3974 1280 3834 794 3565 410 
C 3232 -13 2720 -326 2022 -531 
L 2054 -621 
C 2822 -454 3405 -186 3802 192 
C 4134 550 4320 1018 4352 1594 
C 4358 1613 4403 1632 4486 1651 
C 4525 1670 4550 1696 4550 1734 
C 4550 1760 4474 1786 4320 1824 
L 3974 1882 
z
M 4358 531 
L 4301 442 
C 4710 262 5082 -6 5414 -365 
C 5504 -480 5594 -544 5670 -544 
C 5715 -544 5754 -525 5792 -486 
C 5830 -442 5850 -397 5850 -346 
C 5837 -192 5734 -51 5536 83 
C 5254 262 4864 410 4358 531 
z
" transform="scale(0.015625)"/>
     </defs>
     <use xlink:href="#SimSong-Regular-319e"/>
     <use xlink:href="#SimSong-Regular-5f67" transform="translate(100 0)"/>
     <use xlink:href="#SimSong-Regular-67d7" transform="translate(200 0)"/>
     <use xlink:href="#SimSong-Regular-45e2" transform="translate(300 0)"/>
     <use xlink:href="#SimSong-Regular-232b" transform="translate(400 0)"/>
     <use xlink:href="#SimSong-Regular-68e6" transform="translate(500 0)"/>
    </g>
   </g>
   <g id="text_6">
    <!-- 奖励  $r_t=1$ -->
    <g style="fill: #202020" transform="translate(329.757353 55.269586) scale(0.1 -0.1)">
     <defs>
      <path id="SimSong-Regular-28b4" d="M 3578 5139 
C 3475 4742 3354 4397 3200 4102 
C 3059 3834 2848 3546 2573 3226 
L 2643 3155 
C 2938 3373 3174 3597 3360 3821 
C 3475 3622 3558 3386 3616 3110 
C 3654 2970 3725 2906 3827 2906 
C 3866 2906 3904 2931 3942 2982 
C 3981 3040 4000 3098 4000 3162 
C 4000 3283 3949 3411 3846 3546 
C 3757 3667 3622 3795 3443 3923 
C 3507 4000 3571 4090 3635 4192 
L 5203 4192 
C 5050 3872 4870 3603 4653 3386 
C 4467 3168 4243 2976 3981 2797 
C 3603 2528 3136 2272 2573 2029 
L 2630 1926 
C 3226 2093 3699 2285 4045 2496 
C 4320 2637 4614 2842 4934 3123 
C 5216 3418 5453 3725 5645 4038 
C 5670 4083 5715 4115 5766 4128 
C 5818 4141 5850 4173 5850 4224 
C 5850 4275 5792 4352 5690 4442 
C 5574 4531 5491 4576 5453 4576 
C 5414 4576 5357 4544 5280 4480 
C 5229 4442 5184 4403 5146 4365 
L 3738 4365 
C 3814 4506 3885 4659 3955 4826 
C 3962 4838 3994 4845 4058 4858 
C 4115 4864 4147 4890 4147 4928 
C 4147 4966 4083 4998 3968 5037 
C 3840 5075 3712 5107 3578 5139 
z
M 1926 5005 
C 1939 4838 1952 4640 1952 4416 
L 1952 3226 
C 1459 2976 998 2797 576 2682 
C 640 2554 704 2458 755 2387 
C 845 2246 902 2176 934 2176 
C 954 2176 966 2202 973 2259 
L 973 2374 
C 973 2394 1069 2451 1267 2554 
C 1491 2682 1722 2854 1952 3066 
L 1952 2490 
C 1952 2310 1939 2112 1926 1907 
C 1933 1837 1971 1805 2035 1805 
C 2099 1805 2170 1811 2253 1837 
C 2298 1856 2323 1882 2323 1920 
C 2304 2125 2298 2317 2298 2490 
L 2298 4653 
C 2298 4704 2330 4736 2400 4755 
C 2490 4781 2534 4826 2534 4877 
C 2534 4902 2470 4928 2355 4954 
C 2176 4979 2035 4992 1926 5005 
z
M 934 4653 
L 877 4595 
C 1056 4397 1184 4154 1267 3859 
C 1306 3718 1376 3654 1472 3654 
C 1510 3654 1555 3680 1594 3738 
C 1632 3789 1651 3846 1651 3910 
C 1651 4026 1587 4141 1472 4269 
C 1370 4390 1190 4518 934 4653 
z
M 2925 1952 
C 2925 1773 2906 1600 2880 1440 
L 1286 1440 
C 941 1440 678 1459 499 1498 
L 621 1222 
C 749 1248 973 1267 1286 1267 
L 2842 1267 
C 2790 1062 2720 877 2618 704 
C 2438 429 2221 211 1952 45 
C 1619 -160 1152 -352 550 -544 
L 614 -621 
C 1229 -486 1722 -333 2080 -154 
C 2394 -6 2656 192 2861 448 
C 3002 627 3130 902 3245 1267 
L 3366 1267 
C 3443 1024 3546 800 3674 602 
C 3808 371 3987 186 4205 32 
C 4384 -102 4634 -230 4954 -346 
C 5248 -448 5446 -499 5542 -499 
C 5568 -499 5600 -448 5632 -352 
C 5683 -230 5766 -154 5888 -115 
L 5901 -19 
C 5350 45 4934 141 4659 269 
C 4358 378 4141 506 4006 659 
C 3840 806 3674 1011 3520 1267 
L 5875 1267 
C 5939 1267 5978 1293 5978 1357 
C 5978 1382 5907 1466 5773 1619 
C 5638 1760 5536 1837 5472 1837 
C 5446 1837 5389 1779 5293 1664 
C 5190 1549 5126 1472 5094 1440 
L 3296 1440 
L 3334 1606 
C 3341 1645 3379 1670 3443 1696 
C 3514 1722 3552 1747 3552 1779 
C 3552 1818 3469 1850 3309 1882 
C 3206 1894 3078 1920 2925 1952 
z
" transform="scale(0.015625)"/>
      <path id="SimSong-Regular-220f" d="M 3622 3674 
L 3744 3398 
C 3885 3424 4070 3437 4288 3443 
C 4275 2726 4250 2214 4211 1920 
C 4147 1408 4051 986 3923 646 
C 3770 211 3578 -166 3347 -506 
L 3405 -570 
C 3686 -256 3898 13 4038 256 
C 4179 493 4294 768 4390 1082 
C 4480 1376 4550 1754 4595 2221 
C 4614 2451 4634 2854 4646 3443 
L 5466 3443 
C 5466 2394 5434 1568 5370 979 
C 5306 384 5248 64 5197 13 
C 5146 -38 5069 -70 4973 -70 
C 4794 -70 4570 -26 4301 51 
L 4275 -45 
C 4659 -166 4864 -275 4883 -371 
C 4890 -499 4922 -570 4973 -570 
C 5082 -570 5210 -531 5363 -454 
C 5517 -326 5619 -122 5658 173 
C 5766 845 5824 1869 5837 3238 
C 5837 3264 5862 3302 5920 3347 
C 5971 3386 6003 3424 6003 3462 
C 6003 3494 5952 3558 5856 3661 
C 5741 3750 5664 3802 5626 3802 
C 5594 3802 5549 3776 5498 3738 
L 5363 3616 
L 4646 3616 
C 4646 3962 4653 4371 4653 4845 
C 4653 4877 4685 4909 4749 4934 
C 4819 4954 4858 4986 4858 5030 
C 4858 5062 4781 5094 4627 5120 
L 4262 5178 
C 4288 4973 4301 4813 4301 4685 
C 4301 4301 4294 3942 4294 3616 
C 4128 3616 3904 3635 3622 3674 
z
M 3238 5094 
C 3206 5094 3149 5050 3072 4960 
L 2906 4794 
L 1120 4794 
C 1018 4858 890 4915 736 4979 
C 762 4570 774 3904 774 2976 
C 774 2003 736 1274 666 787 
C 602 384 493 -38 326 -493 
L 397 -544 
C 576 -262 717 6 819 282 
C 934 627 1018 998 1069 1408 
C 1107 1856 1126 2381 1126 2976 
L 1126 3469 
L 1888 3469 
C 1882 2880 1856 2381 1805 1965 
C 1766 1594 1702 1248 1613 934 
C 1517 627 1408 346 1280 96 
C 1146 -147 1011 -352 877 -518 
L 928 -595 
C 1158 -410 1363 -186 1549 77 
C 1696 282 1818 518 1907 794 
C 2003 1056 2080 1370 2138 1741 
C 2157 1862 2176 2010 2195 2189 
L 3046 2189 
C 3046 1747 3014 1280 2963 794 
C 2918 358 2874 102 2829 13 
C 2790 -58 2720 -96 2618 -96 
C 2541 -96 2342 -58 2022 6 
L 1997 -83 
C 2368 -211 2566 -307 2586 -378 
C 2605 -486 2643 -544 2701 -544 
C 2752 -544 2822 -525 2925 -486 
C 3014 -448 3091 -365 3142 -237 
C 3206 -58 3264 237 3302 672 
C 3354 1197 3386 1658 3398 2048 
C 3398 2074 3424 2112 3475 2150 
C 3526 2189 3552 2221 3552 2246 
C 3552 2285 3507 2342 3424 2426 
C 3328 2509 3264 2554 3226 2554 
C 3187 2554 3142 2528 3091 2483 
L 2963 2368 
L 2208 2368 
C 2234 2675 2253 3040 2266 3469 
L 3494 3469 
C 3546 3469 3578 3494 3578 3552 
C 3578 3571 3526 3629 3437 3718 
C 3283 3853 3194 3923 3162 3923 
C 3130 3923 3078 3878 3002 3795 
C 2925 3712 2867 3661 2842 3642 
L 1126 3642 
L 1126 4614 
L 3590 4614 
C 3642 4614 3674 4640 3674 4704 
C 3674 4723 3622 4781 3526 4870 
C 3366 5018 3270 5094 3238 5094 
z
" transform="scale(0.015625)"/>
      <path id="SimSong-Regular-1" transform="scale(0.015625)"/>
      <path id="DejaVuSans-Oblique-55" d="M 2853 2969 
Q 2766 3016 2653 3041 
Q 2541 3066 2413 3066 
Q 1953 3066 1609 2717 
Q 1266 2369 1153 1784 
L 800 0 
L 225 0 
L 909 3500 
L 1484 3500 
L 1375 2956 
Q 1603 3259 1920 3421 
Q 2238 3584 2597 3584 
Q 2691 3584 2781 3573 
Q 2872 3563 2963 3538 
L 2853 2969 
z
" transform="scale(0.015625)"/>
      <path id="DejaVuSans-Oblique-57" d="M 2706 3500 
L 2619 3053 
L 1472 3053 
L 1100 1153 
Q 1081 1047 1072 975 
Q 1063 903 1063 863 
Q 1063 663 1183 572 
Q 1303 481 1569 481 
L 2150 481 
L 2053 0 
L 1503 0 
Q 991 0 739 200 
Q 488 400 488 806 
Q 488 878 497 964 
Q 506 1050 525 1153 
L 897 3053 
L 409 3053 
L 500 3500 
L 978 3500 
L 1172 4494 
L 1747 4494 
L 1556 3500 
L 2706 3500 
z
" transform="scale(0.015625)"/>
      <path id="DejaVuSans-20" d="M 678 2906 
L 4684 2906 
L 4684 2381 
L 678 2381 
L 678 2906 
z
M 678 1631 
L 4684 1631 
L 4684 1100 
L 678 1100 
L 678 1631 
z
" transform="scale(0.015625)"/>
      <path id="DejaVuSans-14" d="M 794 531 
L 1825 531 
L 1825 4091 
L 703 3866 
L 703 4441 
L 1819 4666 
L 2450 4666 
L 2450 531 
L 3481 531 
L 3481 0 
L 794 0 
L 794 531 
z
" transform="scale(0.015625)"/>
     </defs>
     <use xlink:href="#SimSong-Regular-28b4" transform="translate(0 0.09375)"/>
     <use xlink:href="#SimSong-Regular-220f" transform="translate(99.999908 0.09375)"/>
     <use xlink:href="#SimSong-Regular-1" transform="translate(199.999817 0.09375)"/>
     <use xlink:href="#SimSong-Regular-1" transform="translate(249.999771 0.09375)"/>
     <use xlink:href="#DejaVuSans-Oblique-55" transform="translate(299.999725 0.09375)"/>
     <use xlink:href="#DejaVuSans-Oblique-57" transform="translate(341.113007 -14.906201) scale(0.7)"/>
     <use xlink:href="#DejaVuSans-20" transform="translate(390.776093 0.09375)"/>
     <use xlink:href="#DejaVuSans-14" transform="translate(494.047577 0.09375)"/>
    </g>
   </g>
   <g id="text_7">
    <!-- 无奖励  $r_t=0$ -->
    <g style="fill: #202020" transform="translate(329.757353 88.973283) scale(0.1 -0.1)">
     <defs>
      <path id="SimSong-Regular-353e" d="M 723 4800 
L 845 4525 
C 973 4550 1197 4570 1510 4570 
L 2835 4570 
C 2810 3904 2752 3315 2662 2816 
L 1139 2816 
C 794 2816 531 2835 352 2874 
L 467 2598 
C 595 2624 819 2643 1139 2643 
L 2624 2643 
C 2534 2182 2374 1760 2150 1363 
C 1920 973 1638 621 1312 301 
C 979 -6 646 -269 301 -486 
L 358 -570 
C 864 -339 1318 -58 1722 288 
C 2035 544 2291 838 2490 1184 
C 2694 1523 2861 1926 2989 2387 
C 3008 2464 3027 2547 3046 2643 
L 3552 2643 
L 3552 38 
C 3552 -128 3590 -243 3674 -307 
C 3725 -346 3827 -371 3974 -397 
C 4141 -410 4416 -422 4806 -422 
C 5107 -422 5357 -410 5562 -384 
C 5766 -371 5933 -339 6061 -301 
C 6150 -250 6202 -186 6202 -102 
C 6202 -51 6150 -13 6061 19 
C 6022 32 5997 64 5990 102 
C 5978 115 5971 275 5958 576 
L 5875 595 
C 5779 230 5696 32 5619 0 
C 5562 -26 5485 -38 5395 -51 
C 5242 -64 5043 -70 4806 -70 
C 4378 -70 4122 -58 4032 -45 
C 3942 -13 3898 45 3898 147 
L 3898 2643 
L 5952 2643 
C 6016 2643 6048 2669 6048 2726 
C 6048 2758 5978 2848 5837 3002 
C 5696 3155 5587 3238 5523 3238 
C 5498 3238 5434 3174 5338 3053 
C 5235 2931 5171 2854 5133 2816 
L 3078 2816 
C 3162 3264 3219 3846 3258 4570 
L 5574 4570 
C 5638 4570 5677 4595 5677 4653 
C 5677 4678 5606 4768 5472 4915 
C 5338 5056 5242 5133 5178 5133 
C 5152 5133 5088 5075 4992 4966 
C 4890 4851 4826 4774 4794 4742 
L 1510 4742 
C 1165 4742 902 4762 723 4800 
z
" transform="scale(0.015625)"/>
      <path id="DejaVuSans-13" d="M 2034 4250 
Q 1547 4250 1301 3770 
Q 1056 3291 1056 2328 
Q 1056 1369 1301 889 
Q 1547 409 2034 409 
Q 2525 409 2770 889 
Q 3016 1369 3016 2328 
Q 3016 3291 2770 3770 
Q 2525 4250 2034 4250 
z
M 2034 4750 
Q 2819 4750 3233 4129 
Q 3647 3509 3647 2328 
Q 3647 1150 3233 529 
Q 2819 -91 2034 -91 
Q 1250 -91 836 529 
Q 422 1150 422 2328 
Q 422 3509 836 4129 
Q 1250 4750 2034 4750 
z
" transform="scale(0.015625)"/>
     </defs>
     <use xlink:href="#SimSong-Regular-353e" transform="translate(0 0.09375)"/>
     <use xlink:href="#SimSong-Regular-28b4" transform="translate(99.999908 0.09375)"/>
     <use xlink:href="#SimSong-Regular-220f" transform="translate(199.999817 0.09375)"/>
     <use xlink:href="#SimSong-Regular-1" transform="translate(299.999725 0.09375)"/>
     <use xlink:href="#SimSong-Regular-1" transform="translate(349.99968 0.09375)"/>
     <use xlink:href="#DejaVuSans-Oblique-55" transform="translate(399.999634 0.09375)"/>
     <use xlink:href="#DejaVuSans-Oblique-57" transform="translate(441.112915 -14.906201) scale(0.7)"/>
     <use xlink:href="#DejaVuSans-20" transform="translate(490.776001 0.09375)"/>
     <use xlink:href="#DejaVuSans-13" transform="translate(594.047485 0.09375)"/>
    </g>
   </g>
   <g id="text_8">
    <!-- 或 -->
    <g style="fill: #202020" transform="translate(360.27418 72.03029) scale(0.09 -0.09)">
     <defs>
      <path id="SimSong-Regular-3174" d="M 378 4147 
L 493 3872 
C 621 3898 845 3917 1165 3917 
L 3699 3917 
C 3750 3008 3840 2285 3981 1760 
C 4051 1478 4128 1229 4218 998 
C 4115 858 4013 723 3898 602 
C 3629 282 3174 -70 2547 -467 
L 2611 -570 
C 3155 -326 3584 -77 3891 173 
C 4045 301 4205 454 4365 646 
C 4403 563 4442 486 4486 416 
C 4646 115 4851 -134 5107 -352 
C 5350 -563 5568 -672 5773 -672 
C 5894 -659 5965 -589 5978 -467 
C 5978 -416 5952 -358 5914 -294 
C 5869 -237 5850 -166 5850 -90 
C 5850 -38 5901 256 6003 819 
L 5920 851 
L 5542 -6 
C 5510 -64 5472 -96 5427 -96 
C 5331 -96 5178 38 4966 320 
C 4819 499 4698 710 4602 947 
C 4627 973 4653 1011 4678 1050 
C 4934 1446 5203 2093 5485 3002 
C 5485 3027 5530 3046 5606 3066 
C 5683 3078 5728 3104 5728 3142 
C 5728 3194 5645 3238 5491 3290 
C 5389 3328 5254 3373 5094 3430 
C 4998 2797 4858 2272 4672 1850 
C 4602 1683 4525 1530 4448 1382 
C 4333 1741 4243 2157 4179 2630 
C 4122 3027 4083 3456 4064 3917 
L 5894 3917 
C 5946 3917 5978 3942 5978 4006 
C 5978 4026 5920 4096 5805 4224 
C 5696 4339 5613 4403 5562 4403 
C 5536 4403 5491 4358 5421 4275 
C 5331 4173 5274 4115 5248 4090 
L 4058 4090 
C 4045 4346 4038 4608 4038 4890 
C 4038 4928 4077 4960 4141 4979 
C 4224 4998 4269 5030 4269 5082 
C 4269 5107 4205 5139 4090 5165 
C 3904 5190 3750 5216 3629 5229 
C 3648 5069 3661 4922 3661 4794 
C 3667 4550 3680 4320 3693 4090 
L 1165 4090 
C 819 4090 557 4109 378 4147 
z
M 4582 5126 
L 4525 5056 
C 4730 4877 4864 4691 4941 4506 
C 5005 4365 5075 4301 5165 4301 
C 5216 4301 5261 4320 5299 4358 
C 5350 4410 5376 4467 5376 4531 
C 5376 4653 5325 4755 5235 4838 
C 5114 4947 4896 5043 4582 5126 
z
M 928 3130 
C 941 2976 947 2822 947 2669 
L 947 1370 
C 947 1254 941 1139 928 1030 
C 928 960 960 928 1037 928 
C 1088 928 1152 934 1229 960 
C 1274 973 1299 998 1299 1030 
L 1299 1318 
L 2650 1318 
L 2650 1126 
C 2650 1062 2675 1030 2739 1030 
C 2797 1030 2867 1037 2957 1062 
C 3008 1082 3034 1107 3034 1139 
C 3008 1306 3002 1446 3002 1549 
L 3002 2630 
C 3002 2669 3027 2707 3091 2739 
C 3162 2778 3200 2810 3200 2848 
C 3200 2880 3149 2938 3053 3021 
C 2938 3110 2867 3155 2835 3155 
C 2810 3155 2771 3130 2733 3085 
C 2682 3034 2637 2989 2586 2944 
L 1318 2944 
C 1190 3021 1056 3078 928 3130 
z
M 1299 1491 
L 1299 2765 
L 2650 2765 
L 2650 1491 
L 1299 1491 
z
M 3418 704 
C 2483 461 1498 275 474 154 
L 634 -230 
C 678 -358 723 -422 768 -422 
C 781 -422 806 -390 832 -339 
C 832 -294 838 -262 845 -243 
C 845 -198 915 -166 1069 -147 
C 1952 70 2746 333 3450 646 
L 3418 704 
z
" transform="scale(0.015625)"/>
     </defs>
     <use xlink:href="#SimSong-Regular-3174"/>
    </g>
   </g>
  </g>
  <g id="axes_2">
   <g id="patch_12">
    <path d="M 40.777656 256.536 
L 455.497656 256.536 
L 455.497656 151.272 
L 40.777656 151.272 
z
" style="fill: #ffffff"/>
   </g>
   <g id="matplotlib.axis_1">
    <g id="xtick_1">
     <g id="line2d_3">
      <defs>
       <path id="m6ce0e299cf" d="M 0 0 
L 0 3 
" style="stroke: #26313c; stroke-width: 0.65"/>
      </defs>
      <g>
       <use xlink:href="#m6ce0e299cf" x="40.777656" y="256.536" style="fill: #26313c; stroke: #26313c; stroke-width: 0.65"/>
      </g>
     </g>
     <g id="text_9">
      <!-- 1 -->
      <g style="fill: #26313c" transform="translate(38.073594 269.494008) scale(0.085 -0.085)">
       <use xlink:href="#DejaVuSans-14"/>
      </g>
     </g>
    </g>
    <g id="xtick_2">
     <g id="line2d_4">
      <g>
       <use xlink:href="#m6ce0e299cf" x="455.497656" y="256.536" style="fill: #26313c; stroke: #26313c; stroke-width: 0.65"/>
      </g>
     </g>
     <g id="text_10">
      <!-- 80 -->
      <g style="fill: #26313c" transform="translate(450.089531 269.494008) scale(0.085 -0.085)">
       <defs>
        <path id="DejaVuSans-1b" d="M 2034 2216 
Q 1584 2216 1326 1975 
Q 1069 1734 1069 1313 
Q 1069 891 1326 650 
Q 1584 409 2034 409 
Q 2484 409 2743 651 
Q 3003 894 3003 1313 
Q 3003 1734 2745 1975 
Q 2488 2216 2034 2216 
z
M 1403 2484 
Q 997 2584 770 2862 
Q 544 3141 544 3541 
Q 544 4100 942 4425 
Q 1341 4750 2034 4750 
Q 2731 4750 3128 4425 
Q 3525 4100 3525 3541 
Q 3525 3141 3298 2862 
Q 3072 2584 2669 2484 
Q 3125 2378 3379 2068 
Q 3634 1759 3634 1313 
Q 3634 634 3220 271 
Q 2806 -91 2034 -91 
Q 1263 -91 848 271 
Q 434 634 434 1313 
Q 434 1759 690 2068 
Q 947 2378 1403 2484 
z
M 1172 3481 
Q 1172 3119 1398 2916 
Q 1625 2713 2034 2713 
Q 2441 2713 2670 2916 
Q 2900 3119 2900 3481 
Q 2900 3844 2670 4047 
Q 2441 4250 2034 4250 
Q 1625 4250 1398 4047 
Q 1172 3844 1172 3481 
z
" transform="scale(0.015625)"/>
       </defs>
       <use xlink:href="#DejaVuSans-1b"/>
       <use xlink:href="#DejaVuSans-13" transform="translate(63.625 0)"/>
      </g>
     </g>
    </g>
    <g id="text_11">
     <!-- 块内试次 -->
     <g style="fill: #26313c" transform="translate(228.137656 283.136) scale(0.1 -0.1)">
      <defs>
       <path id="SimSong-Regular-26b5" d="M 275 3520 
L 397 3245 
C 525 3270 749 3290 1062 3290 
L 1274 3290 
L 1274 1069 
C 941 992 595 928 250 877 
L 416 461 
C 467 320 518 256 570 256 
C 589 256 614 282 640 346 
C 640 384 646 422 653 448 
C 653 493 710 525 832 550 
C 1523 762 2150 1024 2701 1344 
L 2656 1427 
C 2317 1318 1971 1222 1626 1146 
L 1626 3290 
L 2643 3290 
C 2694 3290 2726 3315 2726 3379 
C 2726 3405 2669 3475 2554 3597 
C 2445 3712 2362 3776 2310 3776 
C 2285 3776 2240 3731 2170 3648 
C 2080 3552 2022 3494 1997 3469 
L 1626 3469 
L 1626 4832 
C 1626 4877 1658 4909 1728 4928 
C 1824 4960 1875 5005 1875 5056 
C 1875 5088 1811 5114 1690 5126 
C 1510 5152 1363 5165 1248 5178 
C 1261 5024 1274 4858 1274 4672 
L 1274 3469 
L 1062 3469 
C 717 3469 454 3482 275 3520 
z
M 2547 4045 
L 2669 3770 
C 2816 3795 3040 3814 3334 3814 
L 3654 3814 
C 3642 3072 3603 2515 3546 2144 
L 2861 2144 
C 2701 2144 2464 2157 2150 2195 
L 2266 1920 
C 2470 1946 2669 1965 2861 1965 
L 3514 1965 
L 3501 1914 
C 3386 1402 3219 979 2995 640 
C 2714 211 2368 -166 1952 -499 
L 2003 -570 
C 2464 -262 2810 6 3040 250 
C 3270 486 3456 762 3603 1075 
C 3731 1306 3827 1606 3904 1965 
L 4058 1965 
C 4115 1574 4205 1242 4326 960 
C 4429 730 4557 499 4717 275 
C 4877 64 5082 -128 5325 -307 
C 5510 -448 5638 -518 5702 -518 
C 5715 -518 5741 -474 5779 -384 
C 5830 -282 5926 -205 6074 -160 
L 6099 -96 
C 5728 45 5427 205 5197 384 
C 4954 557 4749 774 4576 1030 
C 4416 1261 4288 1574 4192 1965 
L 5971 1965 
C 6035 1965 6074 1990 6074 2054 
C 6074 2131 6022 2240 5920 2381 
C 5811 2522 5747 2592 5722 2592 
C 5696 2592 5600 2438 5434 2144 
L 5363 2144 
L 5363 3597 
C 5363 3622 5402 3667 5478 3718 
C 5555 3763 5600 3802 5600 3840 
C 5600 3878 5542 3942 5434 4038 
C 5318 4128 5242 4179 5190 4179 
C 5152 4179 5101 4154 5037 4109 
C 4973 4064 4915 4026 4877 3994 
L 4032 3994 
C 4032 4243 4038 4525 4038 4832 
C 4038 4858 4077 4890 4141 4915 
C 4218 4941 4256 4973 4256 5018 
C 4256 5050 4173 5082 4006 5114 
C 3878 5133 3750 5152 3616 5178 
C 3642 4960 3661 4787 3661 4653 
C 3661 4422 3654 4198 3654 3994 
L 3334 3994 
C 3046 3994 2784 4006 2547 4045 
z
M 4032 3814 
L 4986 3814 
L 4986 2144 
L 3936 2144 
L 3949 2214 
C 3987 2483 4019 3021 4032 3814 
z
" transform="scale(0.015625)"/>
       <path id="SimSong-Regular-20e3" d="M 813 4230 
C 826 3987 838 3776 838 3610 
L 838 192 
C 838 0 826 -230 813 -486 
C 813 -557 851 -595 934 -595 
C 986 -595 1056 -582 1139 -563 
C 1184 -538 1210 -506 1210 -474 
L 1210 3866 
L 2976 3866 
C 2950 3629 2918 3386 2880 3136 
C 2752 2586 2566 2170 2336 1875 
C 2067 1517 1747 1222 1376 986 
L 1459 902 
C 1894 1146 2234 1395 2477 1645 
C 2784 1965 3008 2310 3136 2675 
C 3507 2368 3782 2106 3974 1888 
C 4141 1683 4282 1478 4397 1261 
C 4480 1107 4557 1030 4627 1030 
C 4678 1030 4723 1056 4774 1107 
C 4813 1158 4838 1222 4838 1306 
C 4838 1421 4800 1530 4723 1645 
C 4621 1798 4461 1965 4230 2157 
C 4000 2349 3654 2573 3194 2835 
C 3270 3078 3334 3424 3386 3866 
L 5158 3866 
L 5158 90 
C 5158 0 5082 -45 4928 -45 
C 4691 -45 4384 -19 4000 32 
L 3968 -77 
C 4467 -179 4730 -288 4755 -403 
C 4755 -512 4813 -570 4928 -570 
C 5018 -570 5133 -538 5267 -480 
C 5440 -403 5530 -288 5530 -141 
L 5530 3744 
C 5530 3782 5562 3814 5638 3846 
C 5696 3872 5728 3917 5728 3968 
C 5728 4006 5664 4077 5549 4179 
C 5434 4256 5363 4301 5331 4301 
C 5293 4301 5248 4262 5184 4192 
C 5146 4141 5101 4090 5056 4038 
L 3405 4038 
C 3424 4275 3437 4550 3450 4858 
C 3450 4902 3488 4941 3565 4966 
C 3642 4992 3686 5037 3686 5101 
C 3686 5126 3590 5152 3411 5190 
C 3277 5216 3142 5235 3014 5254 
C 3021 5126 3027 4973 3027 4781 
C 3027 4550 3014 4301 2995 4038 
L 1210 4038 
C 1088 4115 954 4179 813 4230 
z
" transform="scale(0.015625)"/>
      </defs>
      <use xlink:href="#SimSong-Regular-26b5"/>
      <use xlink:href="#SimSong-Regular-20e3" transform="translate(100 0)"/>
      <use xlink:href="#SimSong-Regular-5b33" transform="translate(200 0)"/>
      <use xlink:href="#SimSong-Regular-3a7f" transform="translate(300 0)"/>
     </g>
    </g>
   </g>
   <g id="matplotlib.axis_2">
    <g id="ytick_1">
     <g id="line2d_5">
      <defs>
       <path id="m891f22bcea" d="M 0 0 
L -3 0 
" style="stroke: #26313c; stroke-width: 0.65"/>
      </defs>
      <g>
       <use xlink:href="#m891f22bcea" x="40.777656" y="256.536" style="fill: #26313c; stroke: #26313c; stroke-width: 0.65"/>
      </g>
     </g>
     <g id="text_12">
      <!-- 0 -->
      <g style="fill: #26313c" transform="translate(28.869531 259.765004) scale(0.085 -0.085)">
       <use xlink:href="#DejaVuSans-13"/>
      </g>
     </g>
    </g>
    <g id="ytick_2">
     <g id="line2d_6">
      <g>
       <use xlink:href="#m891f22bcea" x="40.777656" y="226.171385" style="fill: #26313c; stroke: #26313c; stroke-width: 0.65"/>
      </g>
     </g>
     <g id="text_13">
      <!-- 0.3 -->
      <g style="fill: #26313c" transform="translate(20.76 229.400389) scale(0.085 -0.085)">
       <defs>
        <path id="DejaVuSans-11" d="M 684 794 
L 1344 794 
L 1344 0 
L 684 0 
L 684 794 
z
" transform="scale(0.015625)"/>
        <path id="DejaVuSans-16" d="M 2597 2516 
Q 3050 2419 3304 2112 
Q 3559 1806 3559 1356 
Q 3559 666 3084 287 
Q 2609 -91 1734 -91 
Q 1441 -91 1130 -33 
Q 819 25 488 141 
L 488 750 
Q 750 597 1062 519 
Q 1375 441 1716 441 
Q 2309 441 2620 675 
Q 2931 909 2931 1356 
Q 2931 1769 2642 2001 
Q 2353 2234 1838 2234 
L 1294 2234 
L 1294 2753 
L 1863 2753 
Q 2328 2753 2575 2939 
Q 2822 3125 2822 3475 
Q 2822 3834 2567 4026 
Q 2313 4219 1838 4219 
Q 1578 4219 1281 4162 
Q 984 4106 628 3988 
L 628 4550 
Q 988 4650 1302 4700 
Q 1616 4750 1894 4750 
Q 2613 4750 3031 4423 
Q 3450 4097 3450 3541 
Q 3450 3153 3228 2886 
Q 3006 2619 2597 2516 
z
" transform="scale(0.015625)"/>
       </defs>
       <use xlink:href="#DejaVuSans-13"/>
       <use xlink:href="#DejaVuSans-11" transform="translate(63.625 0)"/>
       <use xlink:href="#DejaVuSans-16" transform="translate(95.40625 0)"/>
      </g>
     </g>
    </g>
    <g id="ytick_3">
     <g id="line2d_7">
      <g>
       <use xlink:href="#m891f22bcea" x="40.777656" y="185.685231" style="fill: #26313c; stroke: #26313c; stroke-width: 0.65"/>
      </g>
     </g>
     <g id="text_14">
      <!-- 0.7 -->
      <g style="fill: #26313c" transform="translate(20.76 188.914235) scale(0.085 -0.085)">
       <defs>
        <path id="DejaVuSans-1a" d="M 525 4666 
L 3525 4666 
L 3525 4397 
L 1831 0 
L 1172 0 
L 2766 4134 
L 525 4134 
L 525 4666 
z
" transform="scale(0.015625)"/>
       </defs>
       <use xlink:href="#DejaVuSans-13"/>
       <use xlink:href="#DejaVuSans-11" transform="translate(63.625 0)"/>
       <use xlink:href="#DejaVuSans-1a" transform="translate(95.40625 0)"/>
      </g>
     </g>
    </g>
    <g id="ytick_4">
     <g id="line2d_8">
      <g>
       <use xlink:href="#m891f22bcea" x="40.777656" y="155.320615" style="fill: #26313c; stroke: #26313c; stroke-width: 0.65"/>
      </g>
     </g>
     <g id="text_15">
      <!-- 1 -->
      <g style="fill: #26313c" transform="translate(28.869531 158.549619) scale(0.085 -0.085)">
       <use xlink:href="#DejaVuSans-14"/>
      </g>
     </g>
    </g>
    <g id="text_16">
     <!-- 奖励概率 -->
     <g style="fill: #26313c" transform="translate(14.36 223.904) rotate(-90) scale(0.1 -0.1)">
      <defs>
       <path id="SimSong-Regular-38e0" d="M 326 3872 
L 442 3597 
C 557 3622 749 3635 1011 3642 
C 870 2822 608 1978 224 1101 
L 294 1030 
C 640 1530 915 2112 1126 2765 
L 1126 64 
C 1126 -115 1114 -307 1101 -518 
C 1107 -582 1146 -621 1210 -621 
C 1274 -621 1344 -608 1427 -589 
C 1472 -563 1498 -538 1498 -499 
C 1478 -294 1472 -102 1472 64 
L 1472 2893 
C 1632 2714 1754 2490 1830 2221 
C 1843 2118 1894 2067 1978 2054 
C 2022 2054 2067 2086 2112 2157 
C 2150 2221 2170 2291 2170 2368 
C 2170 2477 2086 2605 1933 2746 
C 1824 2835 1670 2925 1472 3014 
L 1472 3642 
L 2125 3642 
C 2176 3642 2202 3667 2202 3731 
C 2202 3750 2150 3814 2048 3923 
C 1952 4026 1882 4083 1830 4083 
C 1811 4083 1766 4045 1702 3974 
C 1626 3891 1574 3840 1549 3814 
L 1472 3814 
L 1472 4877 
C 1472 4928 1504 4960 1574 4979 
C 1664 5005 1715 5050 1715 5107 
C 1715 5133 1651 5152 1530 5178 
C 1350 5203 1210 5216 1101 5229 
C 1114 5062 1126 4864 1126 4640 
L 1126 3814 
L 1114 3814 
C 768 3814 506 3834 326 3872 
z
M 4077 4800 
L 4192 4525 
C 4326 4550 4550 4570 4864 4570 
L 4960 4570 
C 4941 3827 4890 3187 4813 2656 
C 4800 2611 4794 2566 4787 2515 
L 4320 2515 
C 4410 3072 4474 3482 4512 3750 
C 4538 3802 4589 3840 4666 3866 
C 4717 3878 4742 3904 4742 3942 
C 4742 3981 4704 4000 4634 4013 
L 4173 4096 
C 4147 3680 4077 3181 3968 2592 
C 3936 2541 3898 2483 3846 2413 
C 3814 2394 3802 2368 3802 2342 
C 3802 2310 3859 2266 3974 2202 
C 4013 2182 4051 2176 4102 2176 
C 4128 2176 4205 2227 4333 2342 
L 4755 2342 
C 4678 1990 4582 1658 4454 1338 
C 4275 947 4070 589 3834 269 
C 3584 -38 3328 -301 3072 -518 
L 3123 -595 
C 3507 -365 3853 -77 4160 269 
C 4403 525 4595 819 4749 1165 
C 4800 1267 4845 1382 4890 1510 
L 4890 -77 
C 4890 -218 4915 -307 4973 -358 
C 4998 -384 5050 -410 5126 -422 
C 5203 -435 5318 -448 5466 -448 
C 5594 -448 5709 -435 5811 -416 
C 5914 -397 5978 -378 6010 -352 
C 6067 -326 6099 -275 6099 -211 
C 6099 -128 6067 -58 6003 0 
C 5965 70 5946 192 5939 365 
C 5933 474 5926 678 5926 979 
L 5850 979 
L 5760 218 
C 5741 58 5715 -38 5690 -90 
C 5651 -128 5574 -147 5466 -147 
C 5376 -147 5312 -141 5274 -134 
C 5229 -122 5210 -83 5210 -26 
L 5210 1830 
C 5210 1882 5235 1914 5299 1926 
C 5389 1952 5434 1990 5434 2042 
C 5434 2067 5376 2093 5261 2106 
L 5082 2131 
C 5094 2195 5107 2266 5126 2342 
L 6016 2342 
C 6067 2342 6099 2368 6099 2432 
C 6099 2445 6054 2502 5965 2592 
C 5811 2726 5715 2797 5690 2797 
C 5658 2797 5600 2752 5523 2675 
C 5446 2586 5395 2534 5370 2515 
L 5158 2515 
C 5242 2995 5299 3680 5331 4570 
L 5926 4570 
C 5978 4570 6003 4595 6003 4653 
C 6003 4672 5952 4736 5850 4845 
C 5754 4954 5683 5011 5632 5011 
C 5613 5011 5568 4973 5498 4896 
C 5421 4819 5376 4768 5350 4742 
L 4864 4742 
C 4518 4742 4256 4762 4077 4800 
z
M 3482 4928 
C 3456 4928 3418 4909 3379 4870 
L 3251 4742 
L 2566 4742 
C 2464 4800 2349 4851 2234 4902 
C 2253 4832 2266 4698 2272 4493 
L 2272 774 
C 2272 685 2227 608 2138 531 
C 2093 499 2074 474 2074 454 
C 2074 410 2138 333 2272 218 
C 2317 173 2362 154 2400 154 
C 2432 154 2458 173 2477 211 
C 2547 326 2650 429 2778 518 
L 3437 954 
C 3462 845 3494 730 3520 608 
C 3558 467 3629 403 3725 403 
C 3763 403 3808 429 3846 486 
C 3878 538 3898 595 3898 659 
C 3898 819 3840 986 3731 1152 
C 3629 1331 3456 1510 3206 1702 
L 3149 1645 
C 3245 1478 3328 1280 3405 1050 
L 2624 717 
L 2624 2240 
L 3334 2240 
L 3334 2022 
C 3334 1958 3360 1926 3418 1926 
C 3475 1926 3539 1933 3616 1958 
C 3667 1971 3693 1997 3693 2035 
C 3667 2189 3661 2317 3661 2413 
L 3661 4435 
C 3661 4474 3686 4506 3738 4544 
C 3795 4570 3827 4602 3827 4640 
C 3827 4672 3776 4730 3680 4813 
C 3578 4890 3514 4928 3482 4928 
z
M 2624 3565 
L 2624 4570 
L 3334 4570 
L 3334 3565 
L 2624 3565 
z
M 2624 2419 
L 2624 3392 
L 3334 3392 
L 3334 2419 
L 2624 2419 
z
" transform="scale(0.015625)"/>
       <path id="SimSong-Regular-42e5" d="M 474 4499 
L 595 4224 
C 723 4250 947 4269 1261 4269 
L 2950 4269 
C 2797 3891 2650 3590 2509 3360 
C 2451 3270 2387 3213 2323 3174 
C 2272 3149 2253 3123 2253 3098 
C 2253 3053 2298 2963 2387 2835 
C 2413 2797 2445 2778 2483 2778 
C 2509 2778 2534 2790 2566 2822 
C 2662 2874 2746 2906 2816 2931 
L 3277 3130 
C 3072 2848 2874 2611 2675 2406 
C 2547 2266 2406 2176 2253 2125 
C 2202 2099 2176 2067 2176 2035 
C 2176 1984 2221 1875 2310 1722 
C 2336 1670 2368 1651 2406 1651 
C 2432 1651 2458 1670 2496 1709 
C 2586 1766 2669 1811 2746 1837 
L 3846 2170 
C 3885 2054 3917 1939 3942 1811 
C 3981 1670 4051 1606 4147 1606 
C 4186 1606 4230 1632 4269 1683 
C 4307 1741 4326 1798 4326 1862 
C 4326 1997 4269 2138 4160 2285 
C 4058 2432 3891 2586 3654 2752 
L 3597 2701 
C 3674 2586 3738 2451 3795 2310 
L 2579 2138 
C 2989 2470 3456 2886 3994 3386 
C 4026 3418 4070 3437 4134 3450 
C 4224 3462 4275 3482 4275 3520 
C 4269 3546 4237 3578 4179 3616 
L 3763 3853 
C 3648 3674 3539 3501 3430 3341 
L 2656 3181 
C 2810 3354 2989 3571 3194 3834 
C 3226 3866 3270 3885 3334 3898 
C 3424 3910 3475 3936 3475 3974 
C 3469 4000 3437 4032 3379 4064 
L 3021 4269 
L 5805 4269 
C 5869 4269 5901 4294 5901 4352 
C 5901 4378 5837 4467 5709 4608 
C 5574 4749 5478 4819 5421 4819 
C 5395 4819 5338 4762 5248 4653 
C 5152 4544 5088 4474 5056 4442 
L 3206 4442 
C 3219 4448 3232 4461 3245 4486 
C 3283 4538 3302 4595 3302 4659 
C 3302 4742 3245 4826 3130 4915 
C 3027 5005 2854 5101 2605 5203 
L 2547 5146 
C 2714 5005 2842 4826 2918 4608 
C 2944 4531 2976 4474 3021 4442 
L 1261 4442 
C 915 4442 653 4461 474 4499 
z
M 5485 3622 
L 5613 3597 
C 5651 3597 5670 3616 5677 3654 
C 5677 3686 5619 3738 5510 3802 
L 5139 4006 
C 4909 3635 4621 3328 4275 3072 
L 4333 3002 
C 4819 3200 5203 3405 5485 3622 
z
M 883 3904 
L 826 3846 
C 1082 3667 1299 3398 1491 3034 
C 1542 2931 1606 2880 1683 2880 
C 1734 2880 1773 2906 1811 2970 
C 1850 3014 1875 3072 1875 3142 
C 1875 3258 1824 3366 1728 3462 
C 1645 3526 1574 3578 1517 3616 
C 1325 3731 1114 3827 883 3904 
z
M 4307 2803 
L 4250 2714 
C 4595 2509 4909 2195 5190 1786 
C 5254 1645 5325 1581 5402 1581 
C 5459 1581 5517 1613 5568 1683 
C 5606 1741 5626 1811 5626 1894 
C 5613 2016 5530 2138 5376 2259 
C 5082 2477 4730 2656 4307 2803 
z
M 2131 2726 
C 1658 2406 1139 2138 576 1926 
C 640 1824 704 1734 755 1651 
C 826 1536 883 1478 922 1478 
C 941 1478 954 1504 954 1568 
L 954 1651 
C 954 1677 1018 1728 1152 1805 
C 1478 1997 1818 2285 2176 2669 
L 2131 2726 
z
M 326 1075 
L 442 800 
C 576 826 800 838 1114 838 
L 2989 838 
L 2989 -262 
C 2989 -314 2976 -390 2963 -499 
C 2970 -544 3008 -570 3078 -570 
C 3142 -570 3219 -557 3315 -538 
C 3360 -512 3386 -486 3386 -461 
C 3366 -320 3360 -224 3360 -186 
L 3360 838 
L 5978 838 
C 6042 838 6074 864 6074 928 
C 6074 954 6003 1043 5875 1190 
C 5741 1331 5638 1408 5574 1408 
C 5549 1408 5485 1350 5395 1242 
L 5197 1018 
L 3360 1018 
L 3360 1331 
C 3360 1382 3392 1421 3456 1446 
C 3546 1472 3597 1510 3597 1574 
C 3597 1606 3520 1626 3373 1638 
L 2963 1702 
C 2976 1632 2989 1549 2989 1446 
L 2989 1018 
L 1114 1018 
C 768 1018 506 1037 326 1075 
z
" transform="scale(0.015625)"/>
      </defs>
      <use xlink:href="#SimSong-Regular-28b4"/>
      <use xlink:href="#SimSong-Regular-220f" transform="translate(100 0)"/>
      <use xlink:href="#SimSong-Regular-38e0" transform="translate(200 0)"/>
      <use xlink:href="#SimSong-Regular-42e5" transform="translate(300 0)"/>
     </g>
    </g>
   </g>
   <g id="line2d_9">
    <path d="M 40.777656 185.685231 
L 248.137656 185.685231 
L 248.137656 226.171385 
L 455.497656 226.171385 
L 455.497656 226.171385 
" clip-path="url(#pa9138d8d83)" style="fill: none; stroke: #202020; stroke-width: 1.25; stroke-linecap: square"/>
   </g>
   <g id="line2d_10">
    <path d="M 40.777656 226.171385 
L 248.137656 226.171385 
L 248.137656 185.685231 
L 455.497656 185.685231 
L 455.497656 185.685231 
" clip-path="url(#pa9138d8d83)" style="fill: none; stroke-dasharray: 4.4,3.3; stroke-dashoffset: 0; stroke: #666666; stroke-width: 1.1"/>
   </g>
   <g id="line2d_11">
    <path d="M 248.137656 256.536 
L 248.137656 151.272 
" clip-path="url(#pa9138d8d83)" style="fill: none; stroke-dasharray: 0.7,2.1; stroke-dashoffset: 0; stroke: #999999; stroke-width: 0.7"/>
   </g>
   <g id="patch_13">
    <path d="M 40.777656 256.536 
L 40.777656 151.272 
" style="fill: none; stroke: #000000; stroke-width: 0.65; stroke-linejoin: miter; stroke-linecap: square"/>
   </g>
   <g id="patch_14">
    <path d="M 40.777656 256.536 
L 455.497656 256.536 
" style="fill: none; stroke: #000000; stroke-width: 0.65; stroke-linejoin: miter; stroke-linecap: square"/>
   </g>
   <g id="text_17">
    <g id="patch_15">
     <path d="M 197.107656 163.90728 
L 299.167656 163.90728 
L 299.167656 151.84728 
L 197.107656 151.84728 
z
" style="fill: #ffffff"/>
    </g>
    <!-- 无提示反转（位置随机） -->
    <g style="fill: #26313c" transform="translate(198.637656 161.11728) scale(0.09 -0.09)">
     <defs>
      <path id="SimSong-Regular-332e" d="M 301 3898 
L 416 3622 
C 550 3648 774 3667 1088 3667 
L 1222 3667 
L 1222 2298 
C 902 2195 570 2106 224 2029 
L 384 1638 
C 429 1510 474 1453 518 1453 
C 531 1453 557 1478 582 1536 
C 582 1574 589 1606 595 1632 
C 595 1683 653 1728 768 1754 
C 922 1818 1069 1882 1222 1958 
L 1222 26 
C 1222 -32 1210 -70 1197 -83 
C 1158 -109 1107 -122 1043 -122 
C 922 -122 723 -96 454 -45 
L 422 -141 
C 755 -237 928 -339 941 -442 
C 941 -557 979 -621 1050 -621 
C 1120 -621 1229 -589 1370 -525 
C 1504 -467 1574 -339 1574 -134 
L 1574 2138 
C 1920 2330 2253 2541 2573 2778 
L 2547 2829 
C 2234 2675 1907 2534 1574 2419 
L 1574 3667 
L 2522 3667 
C 2573 3667 2598 3693 2598 3757 
C 2598 3776 2541 3846 2432 3974 
C 2317 4090 2240 4154 2189 4154 
C 2163 4154 2118 4109 2042 4026 
C 1958 3923 1901 3866 1875 3840 
L 1574 3840 
L 1574 4877 
C 1574 4934 1606 4973 1677 4992 
C 1766 5018 1811 5056 1811 5107 
C 1811 5133 1747 5158 1626 5184 
L 1203 5229 
C 1216 5082 1222 4909 1222 4717 
L 1222 3840 
L 1088 3840 
C 742 3840 480 3859 301 3898 
z
M 2925 5005 
C 2938 4774 2950 4582 2950 4429 
L 2950 3366 
C 2950 3181 2938 2970 2925 2726 
C 2925 2662 2963 2630 3040 2630 
C 3091 2630 3149 2637 3226 2662 
C 3277 2688 3302 2714 3302 2746 
L 3302 2970 
L 5126 2970 
L 5126 2778 
C 5126 2714 5152 2682 5210 2682 
C 5274 2682 5344 2688 5434 2707 
C 5478 2733 5504 2758 5504 2797 
L 5472 3418 
L 5472 4550 
C 5472 4576 5491 4608 5530 4646 
C 5574 4685 5600 4717 5600 4749 
C 5600 4781 5542 4845 5440 4941 
C 5338 5018 5274 5056 5242 5056 
C 5216 5056 5171 5030 5120 4979 
C 5069 4934 5018 4890 4954 4838 
L 3283 4838 
C 3168 4902 3053 4960 2925 5005 
z
M 3302 3994 
L 3302 4666 
L 5126 4666 
L 5126 3994 
L 3302 3994 
z
M 3302 3142 
L 3302 3814 
L 5126 3814 
L 5126 3142 
L 3302 3142 
z
M 2227 2426 
L 2342 2150 
C 2470 2176 2694 2189 3014 2189 
L 4064 2189 
L 4064 83 
C 3891 128 3757 192 3654 275 
C 3494 371 3373 493 3283 640 
C 3226 723 3181 819 3142 934 
C 3194 1101 3245 1299 3290 1530 
C 3290 1542 3328 1562 3405 1574 
C 3482 1587 3526 1613 3526 1651 
C 3526 1683 3469 1715 3354 1754 
L 2874 1856 
C 2854 1440 2797 1088 2701 800 
C 2624 544 2515 339 2387 179 
C 2221 -32 1978 -262 1651 -518 
L 1696 -595 
C 2214 -352 2586 -64 2810 269 
C 2899 378 2982 525 3059 704 
C 3104 544 3162 416 3226 314 
C 3328 128 3475 -26 3680 -154 
C 3872 -262 4128 -346 4448 -403 
C 4806 -448 5267 -474 5830 -474 
C 5869 -474 5901 -422 5914 -333 
C 5952 -192 6048 -90 6202 -38 
L 6182 32 
C 5939 -13 5645 -38 5299 -38 
C 4966 -38 4678 -19 4435 13 
L 4435 1165 
L 5837 1165 
C 5894 1165 5926 1190 5926 1254 
C 5926 1274 5875 1331 5773 1421 
C 5613 1562 5517 1638 5485 1638 
C 5459 1638 5402 1594 5325 1510 
L 5158 1344 
L 4435 1344 
L 4435 2189 
L 6118 2189 
C 6170 2189 6202 2214 6202 2278 
C 6202 2304 6144 2374 6029 2496 
C 5920 2618 5837 2682 5786 2682 
C 5760 2682 5715 2637 5645 2547 
C 5555 2451 5498 2394 5472 2368 
L 3014 2368 
C 2669 2368 2406 2387 2227 2426 
z
" transform="scale(0.015625)"/>
      <path id="SimSong-Regular-4898" d="M 973 4845 
L 1094 4570 
C 1222 4595 1446 4614 1760 4614 
L 5414 4614 
C 5466 4614 5498 4640 5498 4704 
C 5498 4730 5440 4806 5325 4934 
C 5210 5056 5120 5120 5062 5120 
C 5037 5120 4992 5069 4915 4979 
C 4826 4883 4762 4819 4736 4794 
L 1760 4794 
C 1414 4794 1152 4806 973 4845 
z
M 326 3200 
L 442 2925 
C 576 2950 800 2970 1114 2970 
L 2950 2970 
L 2950 38 
C 2950 -51 2880 -96 2746 -96 
C 2643 -96 2400 -58 2016 6 
L 1997 -102 
C 2406 -205 2630 -314 2662 -442 
C 2675 -576 2720 -646 2803 -646 
C 2867 -646 2963 -621 3091 -570 
C 3258 -493 3347 -371 3347 -218 
L 3347 2970 
L 5939 2970 
C 5990 2970 6022 2995 6022 3053 
C 6022 3078 5958 3162 5843 3296 
C 5715 3430 5626 3501 5568 3501 
C 5542 3501 5491 3450 5408 3347 
C 5312 3238 5248 3168 5216 3142 
L 1114 3142 
C 768 3142 506 3162 326 3200 
z
M 1638 2406 
C 1459 1869 1261 1427 1043 1075 
C 768 634 512 288 275 45 
L 346 -45 
C 768 282 1107 614 1363 960 
C 1594 1235 1805 1600 2003 2048 
C 2016 2067 2054 2086 2125 2099 
C 2208 2112 2253 2131 2253 2170 
C 2253 2208 2176 2246 2029 2285 
L 1638 2406 
z
M 4134 2355 
L 4077 2291 
C 4589 1779 4966 1133 5210 365 
C 5254 205 5338 128 5453 128 
C 5498 128 5542 160 5587 224 
C 5626 288 5651 352 5651 422 
C 5651 717 5530 1024 5286 1344 
C 5056 1664 4672 2003 4134 2355 
z
" transform="scale(0.015625)"/>
      <path id="SimSong-Regular-5eca" d="M 301 4301 
L 416 4026 
C 550 4051 774 4064 1088 4064 
L 1210 4064 
C 1101 3718 973 3354 826 2957 
C 774 2848 698 2746 582 2643 
C 544 2605 525 2573 525 2541 
C 525 2490 589 2426 717 2355 
C 742 2336 787 2330 851 2330 
C 902 2330 973 2355 1062 2406 
L 1728 2406 
L 1728 1466 
C 1280 1376 813 1293 326 1229 
L 518 941 
C 589 813 646 755 685 755 
C 710 755 730 781 730 845 
L 730 941 
C 730 960 845 998 1082 1050 
C 1286 1094 1504 1152 1728 1222 
L 1728 19 
C 1728 -160 1715 -352 1702 -570 
C 1709 -634 1747 -672 1811 -672 
C 1875 -672 1946 -659 2022 -640 
C 2074 -614 2099 -589 2099 -550 
C 2080 -339 2074 -147 2074 19 
L 2074 1331 
C 2342 1421 2624 1530 2925 1658 
L 2874 1728 
C 2618 1664 2349 1600 2074 1536 
L 2074 2406 
L 2758 2406 
C 2816 2406 2848 2426 2848 2477 
C 2848 2509 2829 2541 2797 2573 
C 2579 2746 2458 2835 2419 2835 
C 2381 2835 2285 2746 2131 2579 
L 2074 2579 
L 2074 3232 
C 2074 3277 2106 3309 2176 3328 
C 2266 3354 2310 3398 2310 3456 
C 2310 3482 2246 3507 2131 3526 
C 1952 3552 1811 3565 1702 3578 
C 1715 3411 1728 3213 1728 2989 
L 1728 2579 
L 1062 2579 
C 1248 3098 1414 3590 1562 4064 
L 2880 4064 
C 2925 4064 2950 4090 2950 4154 
C 2950 4173 2899 4237 2803 4339 
C 2714 4442 2643 4493 2598 4493 
C 2579 4493 2541 4454 2477 4384 
L 2336 4243 
L 1619 4243 
C 1670 4397 1715 4550 1760 4704 
C 1786 4755 1837 4794 1901 4819 
C 2029 4838 2099 4870 2099 4915 
C 2099 4966 2061 5005 1990 5043 
L 1510 5203 
C 1446 4915 1363 4595 1261 4243 
L 1088 4243 
C 742 4243 480 4262 301 4301 
z
M 3584 755 
L 3526 666 
C 3994 448 4416 122 4800 -307 
C 4909 -448 5005 -518 5094 -518 
C 5146 -518 5184 -499 5216 -461 
C 5254 -416 5274 -371 5274 -320 
C 5261 -128 5146 38 4922 205 
C 4832 262 4736 320 4634 378 
C 4902 742 5139 1075 5338 1370 
C 5376 1408 5427 1440 5504 1459 
C 5664 1485 5747 1530 5747 1594 
C 5747 1651 5702 1715 5613 1779 
C 5408 1926 5274 2003 5210 2003 
C 5152 2003 5062 1926 4934 1786 
L 3718 1786 
C 3808 2093 3891 2394 3974 2694 
L 6016 2694 
C 6067 2694 6099 2720 6099 2778 
C 6099 2803 6042 2874 5933 2995 
C 5818 3117 5741 3181 5690 3181 
C 5664 3181 5619 3136 5542 3046 
C 5459 2950 5402 2893 5376 2867 
L 4019 2867 
C 4115 3226 4205 3571 4288 3917 
L 5747 3917 
C 5798 3917 5824 3942 5824 4006 
C 5824 4026 5773 4096 5670 4211 
C 5555 4320 5478 4378 5434 4378 
C 5414 4378 5370 4333 5293 4256 
C 5216 4166 5165 4115 5139 4090 
L 4333 4090 
L 4486 4717 
C 4506 4794 4550 4838 4614 4851 
C 4730 4858 4787 4890 4787 4954 
C 4787 5005 4755 5043 4691 5062 
L 4211 5203 
C 4128 4813 4045 4442 3968 4090 
L 3840 4090 
C 3494 4090 3232 4109 3053 4147 
L 3168 3872 
C 3296 3898 3520 3917 3840 3917 
L 3930 3917 
C 3840 3546 3757 3194 3667 2867 
L 3488 2867 
C 3142 2867 2880 2886 2701 2925 
L 2816 2650 
C 2950 2675 3174 2694 3488 2694 
L 3616 2694 
C 3552 2464 3494 2246 3430 2042 
C 3392 1952 3341 1882 3277 1824 
C 3226 1779 3200 1734 3200 1696 
C 3200 1658 3270 1600 3411 1517 
C 3469 1472 3526 1453 3578 1453 
C 3629 1453 3712 1504 3821 1613 
L 4973 1613 
C 4832 1254 4672 870 4486 448 
C 4230 563 3930 666 3584 755 
z
" transform="scale(0.015625)"/>
      <path id="SimSong-Regular-6f86" d="M 5376 -704 
L 5376 -570 
C 4979 -262 4678 160 4474 704 
C 4275 1197 4179 1728 4179 2304 
C 4179 2874 4275 3405 4474 3904 
C 4678 4442 4979 4870 5376 5178 
L 5376 5312 
C 4890 5030 4493 4608 4186 4032 
C 3891 3469 3744 2893 3744 2304 
C 3744 1709 3891 1133 4186 576 
C 4493 0 4890 -422 5376 -704 
z
" transform="scale(0.015625)"/>
      <path id="SimSong-Regular-1eab" d="M 1555 5178 
C 1389 4461 1197 3866 986 3392 
C 723 2803 480 2342 250 2016 
L 320 1926 
C 595 2234 832 2554 1037 2874 
L 1037 294 
C 1037 32 1024 -224 1005 -486 
C 1005 -557 1043 -595 1133 -595 
C 1184 -595 1254 -582 1338 -563 
C 1389 -538 1414 -506 1414 -467 
L 1414 3181 
C 1414 3232 1434 3270 1485 3296 
C 1562 3334 1600 3379 1600 3437 
C 1600 3456 1562 3475 1485 3501 
L 1395 3520 
C 1574 3872 1747 4314 1914 4838 
C 1926 4851 1958 4870 2022 4883 
C 2106 4890 2150 4915 2150 4954 
C 2150 4992 2080 5030 1939 5069 
C 1824 5094 1696 5126 1555 5178 
z
M 3616 5152 
L 3552 5088 
C 3718 4877 3846 4614 3930 4301 
C 3981 4122 4070 4032 4198 4032 
C 4256 4032 4307 4064 4358 4134 
C 4397 4211 4422 4282 4422 4358 
C 4422 4480 4358 4608 4230 4736 
C 4109 4870 3904 5011 3616 5152 
z
M 2227 4000 
L 2342 3725 
C 2470 3750 2694 3770 3014 3770 
L 6003 3770 
C 6067 3770 6099 3795 6099 3853 
C 6099 3885 6029 3974 5888 4128 
C 5747 4282 5638 4358 5574 4358 
C 5549 4358 5485 4294 5389 4179 
C 5286 4058 5216 3981 5184 3942 
L 3014 3942 
C 2669 3942 2406 3962 2227 4000 
z
M 5024 3507 
C 4864 2253 4634 1082 4333 -6 
L 2835 -6 
C 2490 -6 2227 6 2048 45 
L 2170 -230 
C 2298 -198 2522 -186 2835 -186 
L 6099 -186 
C 6163 -186 6202 -154 6202 -96 
C 6202 -58 6131 26 5990 179 
C 5843 333 5741 410 5677 410 
C 5651 410 5587 346 5485 230 
C 5382 102 5318 26 5280 -6 
L 4480 -6 
C 4851 941 5171 1971 5453 3085 
C 5466 3123 5510 3149 5587 3162 
C 5664 3174 5702 3200 5702 3238 
C 5702 3283 5594 3334 5376 3398 
C 5286 3424 5165 3462 5024 3507 
z
M 2861 3379 
L 2803 3334 
C 3040 2477 3200 1581 3277 640 
C 3309 448 3392 352 3526 352 
C 3578 352 3622 378 3661 429 
C 3699 480 3725 544 3725 621 
C 3725 960 3661 1357 3546 1805 
C 3411 2259 3181 2784 2861 3379 
z
" transform="scale(0.015625)"/>
      <path id="SimSong-Regular-4ecc" d="M 973 5107 
C 986 4979 998 4877 998 4800 
L 998 3917 
C 998 3827 986 3744 973 3680 
C 973 3610 1011 3578 1088 3578 
C 1139 3578 1203 3584 1274 3610 
C 1325 3629 1350 3654 1350 3680 
L 1350 3814 
L 5075 3814 
L 5075 3706 
C 5075 3635 5101 3603 5165 3603 
C 5222 3603 5293 3610 5382 3635 
C 5434 3654 5459 3680 5459 3718 
C 5434 3885 5427 4019 5427 4122 
L 5427 4678 
C 5427 4717 5453 4755 5504 4794 
C 5568 4826 5600 4858 5600 4896 
C 5600 4928 5549 4986 5453 5075 
C 5338 5158 5267 5203 5235 5203 
C 5210 5203 5171 5178 5133 5126 
L 4986 4966 
L 1261 4966 
C 1165 5018 1069 5069 973 5107 
z
M 1350 3994 
L 1350 4794 
L 2310 4794 
L 2310 3994 
L 1350 3994 
z
M 2688 4794 
L 3661 4794 
L 3661 3994 
L 2688 3994 
L 2688 4794 
z
M 4038 4794 
L 5075 4794 
L 5075 3994 
L 4038 3994 
L 4038 4794 
z
M 602 3347 
L 717 3072 
C 851 3098 1075 3117 1389 3117 
L 3021 3117 
C 3008 2976 2989 2816 2963 2643 
L 1786 2643 
C 1658 2714 1549 2765 1453 2803 
C 1466 2688 1472 2515 1472 2291 
L 1472 -230 
L 1088 -230 
C 742 -230 480 -211 301 -179 
L 416 -454 
C 550 -422 774 -410 1088 -410 
L 6003 -410 
C 6067 -410 6099 -378 6099 -320 
C 6099 -288 6035 -205 5907 -64 
C 5779 70 5683 141 5619 141 
C 5594 141 5542 83 5453 -19 
L 5254 -230 
L 4960 -230 
L 4960 2272 
C 4960 2304 4992 2342 5062 2381 
C 5139 2419 5178 2451 5178 2490 
C 5178 2534 5094 2618 4934 2739 
C 4845 2816 4781 2854 4749 2854 
C 4723 2854 4685 2822 4634 2771 
C 4582 2733 4531 2694 4480 2643 
L 3232 2643 
L 3360 3117 
L 5818 3117 
C 5869 3117 5901 3142 5901 3206 
C 5901 3226 5843 3296 5734 3424 
C 5619 3539 5536 3603 5485 3603 
C 5466 3603 5421 3558 5344 3475 
C 5254 3373 5203 3315 5178 3290 
L 3411 3290 
L 3430 3366 
C 3437 3411 3469 3443 3526 3456 
C 3616 3482 3661 3514 3661 3552 
C 3661 3578 3597 3603 3482 3629 
C 3309 3667 3174 3693 3072 3706 
C 3066 3590 3053 3456 3040 3290 
L 1389 3290 
C 1043 3290 781 3309 602 3347 
z
M 1824 1939 
L 1824 2464 
L 4589 2464 
L 4589 1939 
L 1824 1939 
z
M 1824 1216 
L 1824 1766 
L 4589 1766 
L 4589 1216 
L 1824 1216 
z
M 1824 467 
L 1824 1043 
L 4589 1043 
L 4589 467 
L 1824 467 
z
M 1824 -230 
L 1824 294 
L 4589 294 
L 4589 -230 
L 1824 -230 
z
" transform="scale(0.015625)"/>
      <path id="SimSong-Regular-65ed" d="M 3149 4371 
L 3270 4096 
C 3398 4122 3622 4141 3930 4141 
C 3885 4026 3840 3923 3795 3821 
C 3578 3373 3379 3021 3200 2765 
L 3264 2682 
C 3430 2848 3578 3014 3712 3187 
L 3712 813 
C 3712 659 3699 512 3686 371 
C 3693 307 3731 282 3795 282 
C 3840 282 3904 288 3981 307 
C 4019 326 4038 352 4038 390 
L 4038 1542 
L 5261 1542 
L 5261 768 
C 5261 691 5222 653 5152 653 
C 5011 653 4826 666 4602 704 
L 4576 614 
C 4870 538 5030 448 5050 358 
C 5050 269 5088 230 5152 230 
C 5216 230 5299 256 5402 307 
C 5523 365 5587 454 5587 576 
L 5587 3168 
C 5587 3200 5613 3226 5677 3251 
C 5722 3277 5747 3309 5747 3360 
C 5747 3392 5696 3450 5600 3539 
C 5504 3616 5440 3654 5414 3654 
C 5382 3654 5338 3622 5280 3571 
L 5178 3469 
L 3981 3469 
C 3968 3475 3949 3482 3936 3494 
C 3987 3571 4032 3654 4083 3738 
C 4160 3853 4230 3987 4307 4141 
L 5926 4141 
C 5978 4141 6003 4166 6003 4230 
C 6003 4250 5952 4314 5850 4422 
C 5754 4525 5683 4582 5632 4582 
C 5613 4582 5568 4544 5498 4474 
L 5350 4314 
L 4384 4314 
C 4461 4480 4531 4666 4602 4877 
C 4614 4890 4646 4909 4704 4928 
C 4781 4934 4826 4954 4826 4992 
C 4826 5024 4755 5062 4627 5101 
C 4518 5126 4397 5158 4256 5203 
C 4173 4877 4083 4582 3994 4314 
L 3936 4314 
C 3590 4314 3328 4333 3149 4371 
z
M 1978 4954 
C 1939 4954 1907 4934 1869 4896 
C 1830 4858 1779 4806 1722 4742 
L 890 4742 
C 800 4794 698 4838 589 4877 
C 602 4666 614 4486 614 4339 
L 614 58 
C 614 -109 602 -307 589 -525 
C 589 -589 621 -621 691 -621 
C 742 -621 800 -608 870 -589 
C 909 -563 934 -538 934 -506 
L 934 4570 
L 1766 4570 
C 1638 3955 1472 3411 1267 2931 
C 1453 2694 1594 2464 1683 2234 
C 1747 2054 1786 1824 1786 1542 
C 1786 1363 1766 1235 1728 1171 
C 1677 1107 1613 1082 1530 1082 
C 1408 1082 1248 1101 1050 1152 
L 1024 1056 
C 1370 966 1549 877 1568 800 
C 1568 685 1600 627 1651 627 
C 1779 627 1901 691 2003 826 
C 2106 954 2163 1146 2163 1402 
C 2163 1562 2138 1722 2093 1875 
C 2042 2035 1984 2176 1920 2298 
C 1811 2477 1638 2688 1395 2931 
C 1645 3309 1888 3808 2131 4422 
C 2144 4448 2189 4474 2266 4499 
C 2336 4518 2374 4544 2374 4576 
C 2374 4621 2323 4685 2234 4774 
C 2099 4890 2016 4954 1978 4954 
z
M 2406 4877 
L 2349 4826 
C 2515 4608 2637 4333 2720 4013 
C 2758 3872 2829 3802 2925 3802 
C 2963 3802 3008 3827 3046 3885 
C 3078 3942 3098 4000 3098 4058 
C 3098 4186 3040 4314 2931 4448 
C 2829 4589 2656 4730 2406 4877 
z
M 4038 2592 
L 4038 3290 
L 5261 3290 
L 5261 2592 
L 4038 2592 
z
M 1926 2746 
L 2042 2470 
C 2182 2496 2381 2515 2650 2515 
L 2650 486 
C 2458 346 2182 198 1824 38 
C 1914 -141 1990 -288 2067 -416 
C 2099 -467 2131 -499 2157 -499 
C 2208 -499 2240 -422 2240 -275 
C 2470 -58 2669 173 2835 429 
C 2854 467 2874 486 2886 486 
C 3053 45 3322 -205 3680 -282 
C 3968 -326 4282 -352 4614 -365 
L 5875 -365 
C 5920 -365 5952 -326 5965 -256 
C 6003 -102 6067 -13 6163 6 
L 6144 70 
C 5664 32 5229 13 4845 13 
C 4179 13 3744 32 3539 83 
C 3309 147 3130 314 3002 582 
L 3002 2355 
C 3002 2381 3034 2419 3098 2464 
C 3162 2509 3200 2547 3200 2586 
C 3200 2624 3149 2682 3046 2771 
C 2938 2861 2861 2906 2810 2906 
C 2778 2906 2726 2874 2656 2816 
C 2605 2778 2560 2733 2522 2694 
C 2304 2694 2106 2707 1926 2746 
z
M 4038 1715 
L 4038 2419 
L 5261 2419 
L 5261 1715 
L 4038 1715 
z
" transform="scale(0.015625)"/>
      <path id="SimSong-Regular-3698" d="M 301 3770 
L 416 3501 
C 550 3526 774 3539 1088 3539 
L 1299 3539 
C 1107 2714 749 1856 224 973 
L 294 902 
C 742 1402 1101 1971 1376 2611 
L 1376 90 
C 1376 -90 1363 -282 1350 -499 
C 1357 -563 1395 -595 1466 -595 
C 1523 -595 1594 -582 1677 -563 
C 1722 -538 1747 -512 1747 -480 
C 1734 -269 1728 -77 1728 90 
L 1728 2790 
C 1978 2579 2163 2298 2285 1939 
C 2304 1824 2362 1766 2451 1754 
C 2502 1754 2554 1792 2598 1869 
C 2637 1939 2662 2016 2662 2099 
C 2662 2227 2560 2381 2362 2554 
C 2221 2669 2010 2784 1728 2899 
L 1728 3539 
L 2797 3539 
C 2848 3539 2874 3565 2874 3629 
C 2874 3654 2816 3725 2707 3846 
C 2592 3968 2515 4032 2464 4032 
C 2438 4032 2394 3987 2317 3898 
C 2234 3802 2176 3744 2150 3718 
L 1728 3718 
L 1728 4851 
C 1728 4902 1760 4934 1824 4954 
C 1914 4979 1965 5024 1965 5082 
C 1965 5107 1901 5126 1779 5152 
C 1600 5178 1459 5190 1350 5203 
C 1363 5037 1376 4838 1376 4614 
L 1376 3718 
L 1088 3718 
C 742 3718 480 3731 301 3770 
z
M 3091 4806 
C 3117 4397 3136 3731 3136 2803 
C 3136 1869 3040 1165 2861 704 
C 2720 320 2438 -77 2022 -512 
L 2099 -570 
C 2445 -301 2714 -38 2918 218 
C 3149 550 3309 909 3398 1306 
C 3475 1728 3514 2227 3514 2803 
L 3514 4442 
L 4813 4442 
L 4813 -90 
C 4813 -230 4870 -326 4998 -378 
C 5107 -403 5267 -422 5472 -422 
C 5619 -422 5779 -410 5952 -384 
C 6099 -352 6176 -282 6176 -179 
C 6176 -102 6138 -45 6074 -6 
C 6010 32 5978 83 5965 134 
C 5952 186 5939 467 5926 986 
L 5837 1005 
C 5766 506 5715 218 5690 141 
C 5664 58 5645 6 5626 -19 
C 5594 -51 5542 -70 5472 -70 
C 5357 -70 5286 -64 5254 -51 
C 5210 -38 5190 -6 5190 38 
L 5190 4205 
C 5190 4269 5216 4320 5280 4365 
C 5344 4403 5376 4442 5376 4493 
C 5376 4544 5325 4608 5222 4691 
C 5120 4781 5050 4832 4998 4832 
C 4960 4832 4915 4806 4877 4762 
L 4755 4614 
L 3494 4614 
C 3392 4672 3258 4736 3091 4806 
z
" transform="scale(0.015625)"/>
      <path id="SimSong-Regular-6f87" d="M 2656 2304 
C 2656 2893 2509 3469 2214 4032 
C 1907 4608 1510 5030 1024 5312 
L 1024 5178 
C 1414 4870 1715 4448 1933 3910 
C 2125 3411 2221 2874 2221 2304 
C 2221 1728 2125 1197 1933 704 
C 1715 160 1414 -262 1024 -570 
L 1024 -704 
C 1510 -422 1907 0 2214 576 
C 2509 1133 2656 1709 2656 2304 
z
" transform="scale(0.015625)"/>
     </defs>
     <use xlink:href="#SimSong-Regular-353e"/>
     <use xlink:href="#SimSong-Regular-332e" transform="translate(100 0)"/>
     <use xlink:href="#SimSong-Regular-4898" transform="translate(200 0)"/>
     <use xlink:href="#SimSong-Regular-232b" transform="translate(300 0)"/>
     <use xlink:href="#SimSong-Regular-5eca" transform="translate(400 0)"/>
     <use xlink:href="#SimSong-Regular-6f86" transform="translate(500 0)"/>
     <use xlink:href="#SimSong-Regular-1eab" transform="translate(600 0)"/>
     <use xlink:href="#SimSong-Regular-4ecc" transform="translate(700 0)"/>
     <use xlink:href="#SimSong-Regular-65ed" transform="translate(800 0)"/>
     <use xlink:href="#SimSong-Regular-3698" transform="translate(900 0)"/>
     <use xlink:href="#SimSong-Regular-6f87" transform="translate(1000 0)"/>
    </g>
   </g>
   <g id="text_18">
    <!-- b -->
    <g style="fill: #26313c" transform="translate(15.065016 135.59184) scale(0.12 -0.12)">
     <defs>
      <path id="SimSong-Regular-45" d="M 3014 1555 
C 3014 2643 2669 3187 1978 3187 
C 1555 3187 1235 2867 1030 2234 
L 1030 4576 
L 186 4525 
L 186 4358 
C 352 4358 474 4326 538 4269 
C 595 4205 627 4096 627 3936 
L 627 13 
L 787 13 
L 1030 768 
C 1190 493 1318 307 1421 218 
C 1568 70 1741 0 1939 0 
C 2298 0 2573 147 2758 442 
C 2925 710 3014 1082 3014 1555 
z
M 2534 1568 
C 2534 1075 2490 723 2400 512 
C 2298 275 2131 160 1888 160 
C 1709 160 1530 320 1357 646 
C 1190 954 1107 1267 1107 1574 
C 1107 1869 1190 2176 1357 2502 
C 1530 2848 1715 3027 1914 3027 
C 2323 3027 2534 2541 2534 1568 
z
" transform="scale(0.015625)"/>
     </defs>
     <use xlink:href="#SimSong-Regular-45"/>
    </g>
   </g>
   <g id="text_19">
    <!-- 一个 block（80 次试次） -->
    <g style="fill: #26313c" transform="translate(34.556856 135.23184) scale(0.11 -0.11)">
     <defs>
      <path id="SimSong-Regular-4f" d="M 2310 96 
L 2310 262 
L 2144 262 
C 1907 262 1792 384 1792 627 
L 1792 4576 
L 1011 4531 
L 1011 4365 
C 1107 4365 1178 4352 1229 4339 
C 1325 4301 1376 4166 1376 3936 
L 1376 627 
C 1376 384 1254 262 1018 262 
L 890 262 
L 890 96 
L 2310 96 
z
" transform="scale(0.015625)"/>
      <path id="SimSong-Regular-52" d="M 2733 1600 
C 2733 2010 2630 2374 2438 2688 
C 2221 3021 1946 3194 1606 3194 
C 1261 3194 986 3021 768 2682 
C 563 2368 467 2003 467 1594 
C 467 1178 563 813 768 506 
C 986 166 1261 0 1606 0 
C 1946 0 2221 166 2438 512 
C 2630 819 2733 1184 2733 1600 
z
M 2240 1600 
C 2240 1229 2195 922 2112 666 
C 1997 333 1830 166 1606 166 
C 1376 166 1210 326 1094 659 
C 1005 915 960 1229 960 1594 
C 960 1952 1005 2266 1094 2528 
C 1210 2861 1376 3027 1606 3027 
C 1830 3027 1997 2861 2112 2534 
C 2195 2278 2240 1965 2240 1600 
z
" transform="scale(0.015625)"/>
      <path id="SimSong-Regular-46" d="M 2694 915 
L 2592 966 
C 2374 474 2144 230 1894 230 
C 1587 230 1357 365 1203 646 
C 1062 890 998 1203 998 1594 
C 998 1978 1050 2298 1165 2547 
C 1306 2861 1530 3021 1837 3021 
C 1926 3021 2010 2989 2074 2931 
C 2138 2874 2176 2797 2176 2701 
C 2176 2650 2144 2592 2086 2528 
C 2022 2458 1990 2387 1990 2317 
C 1990 2227 2016 2163 2080 2112 
C 2138 2054 2208 2029 2298 2029 
C 2406 2029 2490 2074 2554 2176 
C 2605 2259 2637 2362 2637 2477 
C 2637 2694 2547 2874 2381 3008 
C 2227 3123 2042 3187 1837 3187 
C 1395 3187 1056 3021 826 2694 
C 608 2394 506 1997 506 1510 
C 506 1120 608 774 826 480 
C 1050 160 1331 0 1664 0 
C 1926 0 2138 77 2304 230 
C 2451 365 2579 595 2694 915 
z
" transform="scale(0.015625)"/>
      <path id="SimSong-Regular-4e" d="M 3059 96 
L 3059 262 
C 2918 262 2797 307 2707 397 
C 2643 454 2534 602 2374 838 
L 1606 1971 
L 1946 2483 
C 2061 2662 2176 2784 2278 2842 
C 2374 2893 2528 2925 2739 2925 
L 2739 3091 
L 1453 3091 
L 1453 2925 
L 1555 2925 
C 1754 2925 1856 2874 1856 2784 
C 1856 2714 1818 2618 1741 2502 
L 960 1306 
L 960 4576 
L 256 4525 
L 256 4358 
C 390 4358 480 4320 525 4250 
C 550 4198 570 4090 570 3930 
L 570 627 
C 570 384 467 262 262 262 
L 141 262 
L 141 96 
L 1434 96 
L 1434 262 
L 1331 262 
C 1082 262 960 384 960 627 
L 960 986 
L 1363 1600 
L 2022 621 
C 2074 538 2106 474 2106 422 
C 2106 314 2010 262 1818 262 
L 1818 96 
L 3059 96 
z
" transform="scale(0.015625)"/>
      <path id="SimSong-Regular-1b" d="M 2829 1267 
C 2829 1485 2758 1709 2630 1926 
C 2477 2170 2253 2374 1971 2528 
C 2170 2630 2330 2778 2458 2970 
C 2586 3155 2650 3341 2650 3520 
C 2650 3808 2554 4051 2368 4256 
C 2163 4467 1907 4576 1594 4576 
C 1274 4576 1018 4467 826 4250 
C 627 4026 531 3763 531 3469 
C 531 3251 595 3046 736 2848 
C 877 2630 1082 2470 1344 2355 
C 1075 2298 838 2144 646 1894 
C 461 1658 371 1421 371 1184 
C 371 800 480 499 710 294 
C 922 96 1210 0 1581 0 
C 1965 0 2266 109 2496 333 
C 2714 550 2829 858 2829 1267 
z
M 2208 3494 
C 2208 3110 2054 2816 1747 2605 
C 1229 2765 973 3085 973 3565 
C 973 4128 1178 4410 1594 4410 
C 2003 4410 2208 4102 2208 3494 
z
M 2310 1152 
C 2310 493 2067 166 1581 166 
C 1389 166 1229 262 1094 461 
C 954 659 890 896 890 1165 
C 890 1434 922 1638 992 1792 
C 1088 2010 1274 2176 1549 2285 
C 1818 2144 2010 1984 2131 1818 
C 2246 1638 2310 1421 2310 1152 
z
" transform="scale(0.015625)"/>
      <path id="SimSong-Regular-13" d="M 2816 2285 
C 2816 3808 2413 4576 1606 4576 
C 1171 4576 851 4307 634 3770 
C 467 3354 384 2861 384 2285 
C 384 1722 474 1229 659 800 
C 890 262 1210 0 1626 0 
C 2074 0 2400 262 2605 800 
C 2746 1184 2816 1677 2816 2285 
z
M 2298 2285 
C 2298 1677 2272 1235 2221 960 
C 2118 429 1920 166 1626 166 
C 1357 166 1165 429 1037 960 
C 947 1338 902 1779 902 2285 
C 902 3699 1133 4410 1606 4410 
C 1901 4410 2106 4141 2214 3610 
C 2266 3315 2298 2874 2298 2285 
z
" transform="scale(0.015625)"/>
     </defs>
     <use xlink:href="#SimSong-Regular-1d5e"/>
     <use xlink:href="#SimSong-Regular-1d88" transform="translate(100 0)"/>
     <use xlink:href="#SimSong-Regular-1" transform="translate(200 0)"/>
     <use xlink:href="#SimSong-Regular-45" transform="translate(250 0)"/>
     <use xlink:href="#SimSong-Regular-4f" transform="translate(300 0)"/>
     <use xlink:href="#SimSong-Regular-52" transform="translate(350 0)"/>
     <use xlink:href="#SimSong-Regular-46" transform="translate(400 0)"/>
     <use xlink:href="#SimSong-Regular-4e" transform="translate(450 0)"/>
     <use xlink:href="#SimSong-Regular-6f86" transform="translate(500 0)"/>
     <use xlink:href="#SimSong-Regular-1b" transform="translate(600 0)"/>
     <use xlink:href="#SimSong-Regular-13" transform="translate(650 0)"/>
     <use xlink:href="#SimSong-Regular-1" transform="translate(700 0)"/>
     <use xlink:href="#SimSong-Regular-3a7f" transform="translate(750 0)"/>
     <use xlink:href="#SimSong-Regular-5b33" transform="translate(850 0)"/>
     <use xlink:href="#SimSong-Regular-3a7f" transform="translate(950 0)"/>
     <use xlink:href="#SimSong-Regular-6f87" transform="translate(1050 0)"/>
    </g>
   </g>
   <g id="legend_1">
    <g id="line2d_12">
     <path d="M 347.692056 129.22488 
L 354.892056 129.22488 
L 354.892056 129.22488 
L 362.092056 129.22488 
L 362.092056 129.22488 
" style="fill: none; stroke: #202020; stroke-width: 1.25; stroke-linecap: square"/>
    </g>
    <g id="text_20">
     <!-- 选项 0 -->
     <g style="fill: #26313c" transform="translate(369.292056 132.37488) scale(0.09 -0.09)">
      <use xlink:href="#SimSong-Regular-5f67"/>
      <use xlink:href="#SimSong-Regular-67d7" transform="translate(100 0)"/>
      <use xlink:href="#SimSong-Regular-1" transform="translate(200 0)"/>
      <use xlink:href="#SimSong-Regular-13" transform="translate(250 0)"/>
     </g>
    </g>
    <g id="line2d_13">
     <path d="M 407.092056 129.22488 
L 414.292056 129.22488 
L 414.292056 129.22488 
L 421.492056 129.22488 
L 421.492056 129.22488 
" style="fill: none; stroke-dasharray: 4.4,3.3; stroke-dashoffset: 0; stroke: #666666; stroke-width: 1.1"/>
    </g>
    <g id="text_21">
     <!-- 选项 1 -->
     <g style="fill: #26313c" transform="translate(428.692056 132.37488) scale(0.09 -0.09)">
      <defs>
       <path id="SimSong-Regular-14" d="M 2406 96 
L 2406 262 
L 2202 262 
C 1939 262 1811 397 1811 678 
L 1811 4480 
L 1619 4480 
C 1395 4275 1267 4160 1235 4141 
C 1120 4064 979 4026 813 4026 
L 813 3859 
L 1005 3859 
C 1248 3859 1370 3738 1370 3501 
L 1370 678 
C 1370 518 1338 410 1280 352 
C 1222 288 1120 262 973 262 
L 794 262 
L 794 96 
L 2406 96 
z
" transform="scale(0.015625)"/>
      </defs>
      <use xlink:href="#SimSong-Regular-5f67"/>
      <use xlink:href="#SimSong-Regular-67d7" transform="translate(100 0)"/>
      <use xlink:href="#SimSong-Regular-1" transform="translate(200 0)"/>
      <use xlink:href="#SimSong-Regular-14" transform="translate(250 0)"/>
     </g>
    </g>
   </g>
  </g>
 </g>
 <defs>
  <clipPath id="pdfd4c9177c">
   <rect x="13.730484" y="5.76" width="437.710345" height="126.936"/>
  </clipPath>
  <clipPath id="pa9138d8d83">
   <rect x="40.777656" y="151.272" width="414.72" height="105.264"/>
  </clipPath>
 </defs>
</svg>
